<?xml version="1.0" encoding="utf-8"?>
<!-- Generator: Adobe Illustrator 25.2.0, SVG Export Plug-In . SVG Version: 6.00 Build 0)  -->
<svg version="1.1" id="Layer_1" xmlns="http://www.w3.org/2000/svg" xmlns:xlink="http://www.w3.org/1999/xlink" x="0px" y="0px"
	 viewBox="0 0 600 600" style="enable-background:new 0 0 600 600;" xml:space="preserve">
<style type="text/css">
	.st0{fill:#FFFFFF;stroke:#FFFFFF;stroke-miterlimit:10;}
	.st1{fill:#FFFFFF;}
</style>
<path class="st0" d="M507.33,178.44c-13.66-25.62-37.52-41.62-65.9-46.73c-20.56-3.7-41.86-3.14-62.49-0.22
	c-9.87,1.4-20.07,3.03-29.51,6.31c-9.96,3.46-19.3,8.52-29.75,10.46c-2.74,0.51-4.79-1.02-5.72-3.02c-1.83,2.53-3.59,5.13-5.27,7.78
	c-1.51,5.7-4.87,11.75-6.31,14.92c-3.11,6.85-6.57,13.7-10.42,20.38c-5.31,16.03-8.19,33.25-8.19,51.18
	c0,33.4,10.01,64.34,27.04,89.73c9.47-1.35,18.92-2.89,28.38-4.69c28.9-5.5,58.89-12.53,82.74-30.48c-0.12-2.59,1.48-5.28,4.82-5.28
	h3.5c4.09,0,6.94,5.65,3.54,8.54c-26.21,22.22-59.67,30.75-92.71,37.01c-7.89,1.5-15.77,2.81-23.67,4
	c25.86,33.14,64.45,54.94,107.95,57.18c1.91-1.13,3.81-2.27,5.7-3.42c19.47-11.95,37.57-25.74,52.22-43.4
	c21.22-25.58,33.96-57.64,37.23-90.64C523.16,231.16,520.2,202.58,507.33,178.44z M447.1,227.28c-14.31-3.65-28.99-3.1-42.49,3.21
	c-13.38,6.25-24.39,16.36-34.46,26.97c-2.67,2.82-7.27,1.28-8.36-2.21c-10.96-35.24,12.94-64.1,32.67-90.57
	c2-2.68,5.33-2.58,7.49-1.13c3.4-0.4,7.34,3.41,5.34,7.58c-9.95,20.69-29.38,39.26-33.99,62.22c4.64-3.95,9.32-7.87,14.42-11.2
	c7.99-5.22,16.98-8.13,26.47-8.95c7.5-0.65,15.12-0.91,22.64-0.68c5.63,0.17,13.62-0.01,17.93,4.3c3.09,3.1,0.82,7.35-2.37,8.33
	C451.23,226.77,449.28,227.84,447.1,227.28z M473.65,290.06c-1.61,0.37-3.27,0.44-4.94,0.28c-1.44,0.22-2.89,0.2-4.29-0.04
	c-3.98-0.38-7.86-2.26-10.57-5.38c-2.25-2.59-3.21-5.6-3.16-8.59c-1.1-3.18-1.13-6.57,0.38-9.77c0.38-2.57,1.47-4.98,3.55-6.93
	c2.19-2.05,5.01-3.06,7.95-3.33c8.55-4.69,18.71-1.39,20.94,8.53c0.39,1.76,0.52,3.6,0.43,5.46c0.17,0.64,0.32,1.3,0.41,1.97
	C485.39,279.79,481.48,288.25,473.65,290.06z"/>
<path class="st0" d="M432.8,83.3c-45.38,0-86.02,21.27-113.35,54.81c11.41-2.66,21.66-8.73,33.01-11.69
	c11.87-3.09,24.18-4.91,36.37-6.11c22.69-2.23,46.56-1.79,68.53,4.91c28.73,8.77,51.11,29.59,62.87,57.1
	c11.87,27.79,13.4,59.12,8.56,88.69c-5.93,36.24-22.95,70.18-48.9,96.24c-10.66,10.7-22.66,19.72-35.22,27.96
	c76.75-6.34,137.15-73.63,137.15-155.71C581.82,153.24,515.1,83.3,432.8,83.3z"/>
<path class="st0" d="M77.05,449.63c1.23-17.82,7.64-35.09,17.81-49.74c2.95-4.25,6.14-8.2,9.53-11.88
	c-6.72-10.8-12.93-21.92-18.65-33.27c-7.59-15.07-14.36-30.54-20.48-46.26c-1.95-5-3.81-10.04-5.58-15.11
	c-16.6,8.9-35.63,22.84-44.14,45.21c-21.82,57.33,38.54,135.62,65.64,142.77C76.43,471.91,76.36,459.49,77.05,449.63z"/>
<path class="st0" d="M103.49,404.94c-8.82,12.68-15,27.62-16.33,43.09c-0.78,9.14-1.56,22.35,4.01,30.65
	c3.85-6.5-0.05-21.93,10.36-40.12c5.33-9.31,12.93-16.74,22.06-22.66c-4.77-6.24-9.3-12.66-13.63-19.21
	C107.67,399.3,105.5,402.05,103.49,404.94z"/>
<path class="st0" d="M352.45,126.42c2.11-0.55,4.23-1.04,6.36-1.52l-0.95-1.44c-4.27,1.66-8.56,3.44-12.84,5.32
	C347.46,127.9,349.93,127.08,352.45,126.42z"/>
<path class="st0" d="M387.72,222.16c7.99-5.22,16.98-8.13,26.47-8.95c0.97-0.08,1.95-0.14,2.93-0.21l-18.17-27.45
	c-9.98,15.31-22.13,30.28-25.66,47.81C377.94,229.4,382.62,225.49,387.72,222.16z"/>
<path class="st0" d="M266.32,207.16c-3.46,3.48-7.11,6.78-10.88,9.93c-3.92,4-8.2,7.68-12.61,11.16c-1.27,1.13-2.55,2.24-3.85,3.34
	c9.34-6.5,18.26-13.51,25.84-22.15c0.75-0.85,1.47-1.74,2.19-2.62C266.78,206.93,266.55,207.06,266.32,207.16z"/>
<path class="st0" d="M468.35,290.38c-1.32,0.17-2.64,0.14-3.93-0.08c-3.98-0.38-7.86-2.26-10.57-5.38c-2.25-2.59-3.21-5.6-3.16-8.59
	c-1.1-3.18-1.13-6.57,0.38-9.77c0.09-0.58,0.21-1.16,0.38-1.72l-26.25-39.66c-7.03,0.5-13.95,2.21-20.59,5.31
	c-13.38,6.25-24.39,16.36-34.46,26.97c-2.67,2.82-7.27,1.28-8.36-2.21c-10.05-32.33,9.24-59.3,27.73-83.97l-24.81-37.48
	c-5.2,1.02-10.34,2.28-15.28,3.99c-9.96,3.46-19.3,8.52-29.75,10.46c-2.97,0.55-5.13-1.3-5.93-3.53c-1.44,0.84-2.88,1.71-4.31,2.58
	c0.32,6.82-5.11,16.35-7.06,20.63c-10.44,23-24.79,46.09-44.57,62.16c-8.62,7.01-18.09,13.7-27.77,19.5
	c-2.66,2.38-6.35,4.42-10.08,6.1c-5.13,3.71-10.73,6.78-16.13,9.29c-11.51,5.35-25.12,9.76-37.98,7.71
	c-28.54,6.96-46.28-5.75-86.45,11.43c-3.09,1.32-6.75,2.89-10.73,4.75c2.17,6.28,4.48,12.5,6.92,18.68
	c5.84,14.86,12.34,29.45,19.58,43.68c5.11,10.05,10.6,19.93,16.51,29.55c36.94-33.37,92.95-40.34,140.84-44.94
	c29.14-2.8,57.9-5.84,86.67-11.32c28.9-5.5,58.89-12.53,82.74-30.48c-0.12-2.59,1.48-5.28,4.82-5.28h3.5c4.09,0,6.94,5.65,3.54,8.54
	c-26.21,22.22-59.67,30.75-92.71,37.01c-27.66,5.25-55.3,8.4-83.31,11.03c-28.33,2.66-56.9,5.62-84.25,13.86
	c-20.33,6.13-40.63,15.69-56.4,30.19c4.8,7.36,9.87,14.54,15.24,21.5c40.43-20.3,102.35-17.63,137.79-16.1
	c48.67,2.1,51.03,9.75,75.79,6.25c59.28-8.39,101.37-60.1,127.73-102.65L468.35,290.38z"/>
<g>
	<g>
		<path class="st1" d="M451.11,89.16c-2.37-4.4-4.33-8.99-5.82-13.77c-1.45-4.65-2.77-9.6-2.94-14.48
			c-0.15-4.08,0.89-7.83,3.74-10.76c2.48-2.55,5.64-4.29,8.73-6c3.82-2.11,7.65-4.19,10.94-7.09c-1.18,0-2.36,0-3.54,0
			c10.38,12.11,13,29.81,7.92,44.74c-1.45,4.28-3.61,8.28-6.31,11.89c1.52,0.2,3.05,0.4,4.57,0.6c-2.33-14.46-3.03-29.17-2.2-43.79
			c0.14-2.46-3.52-3.42-4.66-1.26c-4.51,8.57-5.38,19.03-2.01,28.15c0.78,2.11,1.76,4.87,4.24,5.47c3.13,0.75,4.51-2.22,5.44-4.58
			c1.73-4.37,2.44-9.22,2.16-13.9c-0.32-5.36-1.85-10.58-4.58-15.21c-1.09-1.85-3.99-1.48-4.57,0.6
			c-2.85,10.28-1.86,21.24,2.59,30.91c0.76,1.65,3.55,1.62,4.32,0c4.5-9.47,4.66-20.3,0.55-29.93c-0.84-1.97-4.16-1.39-4.57,0.6
			c-1.92,9.36-1.65,19.03,0.89,28.25c0.7,2.55,3.98,2.19,4.82,0c2.7-7,3.39-14.52,2.3-21.92c-0.36-2.44-4.37-2.33-4.82,0
			c-1.86,9.53-2.59,19.25-2.09,28.96c0.17,3.19,4.99,3.24,5,0c0.02-6.17,0.04-12.34,0.06-18.51c0.01-2.91-4.02-3.28-4.91-0.66
			c-2.35,6.87-3.5,14.14-3.41,21.41c0.01,1.1,0.77,2.12,1.84,2.41c0.97,0.27,2.4-0.15,2.82-1.15c3.85-9.11,5.4-19.04,4.16-28.88
			c-0.4-3.17-4.68-3.25-5,0c-0.25,2.57-0.5,5.15-0.76,7.72c-0.27,2.78,4.48,3.45,4.91,0.66c1.18-7.62,0.48-15.39-2.33-22.59
			c-0.93-2.39-3.87-2.33-4.82,0c-1.49,3.65-1.54,7.84-0.19,11.53c0.95,2.6,4.8,2.26,4.91-0.66c0.25-6.39-2.12-12.61-6.42-17.31
			c-0.74-0.81-2.1-0.93-3.03-0.39c-1.03,0.6-1.31,1.71-1.15,2.82c0.54,3.62,1.49,7.14,2.86,10.53c0.46,1.15,1.42,1.99,2.74,1.79
			c1.19-0.18,2.2-1.19,2.17-2.46c-0.08-3.64-0.76-7.24-2.09-10.64c-0.41-1.04-1.23-1.84-2.41-1.84c-1.08,0-2.14,0.77-2.41,1.84
			c-0.55,2.2-1.1,4.4-1.65,6.59c1.64,0.22,3.27,0.44,4.91,0.66c0.14-1.6,0.28-3.2,0.41-4.79c0.19-2.22-2.83-3.21-4.27-1.77
			c-3.11,3.12-5.25,7.16-5.91,11.53c-0.49,3.19,3.62,4.34,4.82,1.33c2.08-5.24,2.53-10.9,1.57-16.43c-0.25-1.46-2.46-2.43-3.67-1.49
			c-6.39,4.94-10.24,12.66-9.84,20.8c0.12,2.4,3.39,3.5,4.66,1.26c1.94-3.42,2.98-7.21,3.09-11.14c0.06-2.18-2.77-3.28-4.27-1.77
			c-6.59,6.62-7.97,17.45-3.24,25.51c1.01,1.72,3.27,1.51,4.32,0c4.44-6.36,5.52-14.91,2.79-22.17c-0.72-1.92-3.43-2.59-4.57-0.6
			c-4.27,7.47-4.61,16.68-1.18,24.53c1.5,3.44,5.14,9.31,9.63,6.36c1.88-1.24,2.36-3.77,2.69-5.83c0.34-2.15,0.47-4.31,0.29-6.48
			c-0.42-4.93-2.08-9.73-5.02-13.73c-1.04-1.42-3.36-1.8-4.32,0c-4.8,9-3.61,20.19,2.78,28.08c0.93,1.15,3.33,0.9,3.93-0.51
			c4.02-9.52,3.87-20.15-0.52-29.52c-0.78-1.66-3.53-1.61-4.32,0c-5.27,10.71-4.24,24.18,3.08,33.72c1.34,1.75,3.76,1.53,4.57-0.6
			c3.39-8.92-0.08-19.33-7.64-24.92c-1.41-1.04-3.17,0.14-3.67,1.49c-3.46,9.36-0.74,20.54,6.51,27.36c1.48,1.4,3.47,0.62,4.18-1.1
			c3.58-8.78-0.39-19.66-8.54-24.35c-1.52-0.87-3.09,0.01-3.67,1.49c-2.48,6.28-1.99,13.37,0.99,19.37c1.08,2.17,4.87,1.2,4.66-1.26
			c-0.74-8.53-3.44-16.76-8.04-23.99c-1.75-2.76-5.65-0.36-4.32,2.52c1.88,4.06,3.76,8.13,5.64,12.19c1.2,2.59,5.35,0.75,4.57-1.93
			c-2.01-6.85-4.01-13.69-6.02-20.54c-1.61,0.44-3.21,0.89-4.82,1.33c3.52,9.02,7.05,18.05,10.57,27.07
			c0.45,1.16,1.43,1.99,2.74,1.79c1.11-0.17,2.31-1.2,2.17-2.46c-1.04-8.99-2.07-17.98-3.11-26.97c-1.55,0.42-3.11,0.84-4.66,1.26
			c4.18,9.84,8.36,19.68,12.54,29.51c1.01,2.38,4.67,1.04,4.66-1.26c-0.04-11.65-1.51-23.28-4.36-34.57
			c-0.79-3.14-5.48-1.8-4.82,1.33c2.08,9.95,4.16,19.91,6.24,29.86c0.25,1.2,1.59,1.96,2.74,1.79c1.3-0.2,2.04-1.18,2.17-2.46
			c0.91-9.18,0.87-18.42-0.13-27.59c-1.64,0.22-3.27,0.44-4.91,0.66c1.14,5.67,2.27,11.35,3.41,17.02c0.24,1.2,1.6,1.96,2.74,1.79
			c1.29-0.19,2.06-1.18,2.17-2.46c0.78-9.26-1.22-18.59-5.58-26.78c-1.11-2.08-4.95-1.25-4.66,1.26c0.48,4.23,1.68,8.22,3.7,11.98
			c1.19,2.22,4.65,1.15,4.66-1.26c0.02-2.85,0.03-5.7,0.05-8.55c-1.64,0.22-3.27,0.44-4.91,0.66c1.65,6.49,3.68,12.88,6.08,19.13
			c0.85,2.22,4.09,2.52,4.82,0c0.92-3.16,0.39-6.69-1.58-9.36c-1.22-1.64-3.97-1.64-4.57,0.6c-2.66,9.94-4.48,20.09-5.51,30.33
			c1.67,0,3.33,0,5,0c0.02-5.92,0.04-11.84,0.06-17.77c0.01-2.84-4.12-3.37-4.91-0.66c-1.64,5.6-2.62,11.37-2.98,17.2
			c-0.08,1.35,1.21,2.5,2.5,2.5c1.46,0,2.37-1.15,2.5-2.5c0.61-6.17,0.21-12.38-1.11-18.44c-0.47-2.14-3.53-2.39-4.57-0.6
			c-3.33,5.74-4.01,12.89-1.62,19.1c1.04,2.71,4.57,2.16,4.91-0.66c1.37-11.51,1.18-23.09-0.41-34.57
			c-0.17-1.21-1.65-1.95-2.74-1.79c-1.31,0.2-2.03,1.18-2.17,2.46c-0.68,6.13-1.35,12.26-2.03,18.38c1.67,0,3.33,0,5,0
			c-0.02-3.8-0.05-7.6-0.07-11.41c-0.02-2.72-4.42-3.53-4.91-0.66c-0.59,3.47-1.05,6.96-1.36,10.47c-0.14,1.68-0.25,3.37-0.32,5.05
			c-0.07,1.62-0.21,3.28,0.09,4.88c0.52,2.78,3.88,5.35,6.34,2.86c1.93-1.95,1.43-6.16-1.93-5.95c-1.36,0.09-2.48,1.08-2.5,2.5
			c0.01-0.56,0.63-1.08,1.08-1.25c0.41-0.16,0.14,0.12,0.07-0.02c0.26,0.05,0.3,0.05,0.11,0.01c-0.12-0.02-0.23-0.06-0.35-0.1
			c0.31,0.15-0.09-0.05-0.2-0.12c0.07,0.05-0.43-0.55-0.24-0.16c-0.08-0.16-0.28-1-0.4-1.43c-0.65-2.42-1.7-4.97-4.41-5.59
			c-1.45-0.33-3.32,0.71-3.16,2.41c0.29,3.2,0.57,6.4,0.86,9.6c1.42-0.59,2.85-1.18,4.27-1.77c-5.14-4.92-8.01-11.87-7.92-18.98
			c0.08-6.95,3.28-13.43,8.38-18.08c2.84-2.58,6.24-4.48,9.93-5.54c-0.64-1.52-1.28-3.05-1.93-4.57
			c-8.82,4.47-16.97,11.08-21.85,19.81c-4.57,8.18-5.85,18.18-2.63,27.08c1.82,5.03,4.89,9.31,9.2,12.5
			c2.11,1.56,4.56-1.4,3.42-3.42c-4.42-7.85-7.56-16.8-6.74-25.92c0.69-7.62,4.93-14.71,11.64-18.52c3.41-1.94,7.4-2.87,11.29-2.11
			c-0.37-1.39-0.74-2.79-1.1-4.18c-7.23,7.33-12.23,16.89-13.96,27.05c-1.66,9.77-0.92,21.84,7.5,28.47
			c4.27,3.36,9.95,5.03,15.25,3.3c0.75-0.25,1.63-0.89,1.75-1.75c0.56-4.08,0.05-8.01-0.74-12.03c-0.73-3.67-1.62-7.33-1.51-11.1
			c0.2-6.75,3.61-13.12,8.26-17.88c4.98-5.09,11.41-8.57,18.02-11.05c7.25-2.72,14.88-4.55,22.58-5.37
			c8.85-0.95,17.84-0.69,26.6,0.87c-0.61-0.8-1.22-1.61-1.84-2.41c0.02,11.64-3.36,23.11-9.62,32.92
			c-6.1,9.57-14.96,17.12-25.21,21.95c-5.61,2.64-11.72,4.44-17.88,5.2c0.59,1.42,1.18,2.85,1.77,4.27c2.73-2.78,5.4-5.68,6.76-9.4
			c1.13-3.1,0.96-6.98-0.84-9.8c-4.27-6.72-13.63-4.08-17.17,1.91c-2.33,3.94-2.61,8.65-2.77,13.11c-0.05,1.37,1.19,2.47,2.5,2.5
			c8.99,0.21,15.09-7.35,18.13-14.98c0.8-2,1.44-4.06,2.04-6.13c0.63-2.16,1.5-4.59,0.23-6.7c-2.3-3.83-7.63-2.02-10.74-0.45
			c-6.57,3.32-11.68,10.79-11.46,18.29c0.13,4.43,3.33,7.5,7.69,7.8c4.34,0.29,7.97-2.57,11.01-5.3c2.98-2.67,5.99-5.97,6.77-10.04
			c0.68-3.52-0.32-7.56-3.14-9.92c-7.06-5.92-16.71,2.98-20.18,8.99c-1.9,3.3-4.18,8.47-2.18,12.15c1.85,3.4,6.45,4,9.7,2.46
			c3.62-1.71,5.97-5.84,7.88-9.19c2.03-3.55,3.41-7.74,2.13-11.8c-1.26-4.01-4.75-6.79-9.05-6.52c-4.07,0.25-7.92,2.36-10.97,4.96
			c-2.93,2.49-5.14,5.75-6.55,9.3c-1.39,3.5-2.46,8.45-0.41,11.9c2.05,3.45,6.23,3.99,9.85,3.32c3.69-0.68,7.33-2.78,10.1-5.25
			c2.89-2.58,4.9-6.13,5.06-10.05c0.14-3.43-1.19-7.1-3.87-9.32c-7.15-5.9-15.83,0.97-19.28,7.58c-1.87,3.59-3.35,8.21-1.88,12.19
			c1.45,3.93,5.26,6.16,9.37,6.18c8.66,0.05,14.51-9.13,16.98-16.37c1.29-3.79,2.76-9.24-1.32-11.86c-3.2-2.05-7.53-0.91-10.52,0.94
			c-3.31,2.04-5.75,5.19-7.11,8.8c-1.24,3.29-1.96,8.72,1.08,11.26c2.94,2.45,7.87,1.19,10.89-0.48c3.03-1.68,5.39-4.41,7.26-7.28
			c1.95-2.99,3.4-6.31,4.66-9.64c0.77-2.04,1.44-4.26,0.12-6.25c-1.09-1.64-3.09-2.25-4.97-2.06c-3.73,0.38-7.18,3.07-9.79,5.6
			c-2.72,2.63-4.91,5.84-6.4,9.31c-1.49,3.49-2.31,7.18-2.33,10.98c-0.01,1.2,0.8,2,1.84,2.41c3.42,1.36,7.25,0.14,9.97-2.13
			c2.87-2.38,4.3-6.12,5.16-9.64c0.82-3.35,1.4-7.61-1.96-9.81c-3.14-2.05-7.05-0.3-9.51,2c-2.99,2.8-5.05,6.81-6.26,10.67
			c-0.96,3.08,3.86,4.39,4.82,1.33c0.92-2.94,2.44-5.85,4.59-8.09c0.77-0.8,1.99-1.83,3.18-1.86c0.65-0.01,0.83,0.68,0.82,1.49
			c-0.02,1.46-0.48,2.96-0.88,4.35c-0.45,1.53-1.02,3.01-1.93,4.33c-1.5,2.17-4.11,3.54-6.67,2.52c0.61,0.8,1.22,1.61,1.84,2.41
			c0.03-5.52,2.1-10.99,5.74-15.15c1.81-2.08,3.93-3.84,6.36-5.16c0.51-0.27,0.88-0.44,1.47-0.57c-0.03,0.01,0.47-0.08,0.26-0.05
			c-0.02,0,0.84-0.12,0.5-0.03c0.64-0.18,0.08,0.26,0.06-0.05c-0.02-0.35-0.08-0.12-0.11-0.1c-0.24,0.16-0.61,1.85-0.73,2.19
			c-1.76,4.64-4.08,9.76-8.07,12.91c-1.64,1.3-3.63,2.12-5.7,2.13c-1.1,0-1.18-0.2-1.27-1.34c-0.1-1.32,0.08-2.62,0.46-3.89
			c0.72-2.42,2.22-4.64,4.22-6.19c1.59-1.23,4.06-2.47,5.94-1.82c0.31,0.11,0.49,0.22,0.57,0.38c0.23,0.46,0.14,1.02,0.08,1.51
			c-0.23,1.75-0.77,3.51-1.38,5.16c-1.04,2.84-2.61,5.64-4.59,7.93c-1.67,1.93-3.85,3.81-6.48,4.13c-2.14,0.26-4.63-0.53-5.49-2.65
			c-1.01-2.51,0.21-5.74,1.36-7.99c1.3-2.56,3.18-5.02,5.69-6.5c1.84-1.08,4.16-1.47,5.95-0.14c1.74,1.29,2.37,3.62,2.28,5.68
			c-0.21,5.05-5.72,8.87-10.18,10.17c-1.74,0.51-4.48,0.87-5.43-0.57c-1.34-2.03-0.1-5.79,0.7-7.84c1.88-4.81,6.06-9.07,11.06-10.56
			c2.42-0.72,4.86-0.43,5.9,2.14c0.99,2.45,0.16,5.13-1.01,7.37c-0.75,1.43-1.63,2.78-2.51,4.13c-0.79,1.19-1.6,2.43-2.72,3.35
			c-0.82,0.67-1.58,1.02-2.51,1c-0.65-0.02-1.51-0.34-1.66-0.63c-0.56-1.1,0.22-2.9,0.57-3.94c0.46-1.35,1.08-2.62,1.82-3.83
			c1.41-2.31,3.31-4.37,5.55-5.89c1.96-1.33,5.01-3.05,6.95-1.2c1.55,1.48,1.72,3.93,1.07,5.89c-0.91,2.74-3.22,4.87-5.31,6.74
			c-1.94,1.73-4.4,3.95-7.16,3.71c-5.66-0.49-1.73-9.08,0.14-11.7c1.54-2.15,3.62-3.9,5.98-5.08c1.02-0.51,2.19-1.02,3.33-1.15
			c-0.03,0,0.93-0.03,0.89,0.07c-0.06,0.17-0.45-0.39-0.34-0.42c0.07-0.02-0.24,1.32-0.24,1.34c-1.61,5.88-3.53,12.45-8.48,16.43
			c-2.11,1.69-4.63,2.72-7.35,2.66c0.83,0.83,1.67,1.67,2.5,2.5c0.13-3.68,0.21-7.75,2.3-10.94c1.3-1.98,4.15-3.69,6.4-2.97
			c2.41,0.77,3.07,3.62,2.67,5.89c-0.63,3.51-3.5,6.24-5.89,8.67c-1.37,1.4-0.49,4.55,1.77,4.27c12.27-1.52,23.79-6.38,33.46-14.08
			c9.68-7.71,16.85-18.27,20.81-29.96c2.29-6.75,3.44-13.91,3.43-21.04c0-1.01-0.77-2.22-1.84-2.41
			c-16.46-2.92-33.6-1.77-49.44,3.65c-14.08,4.81-28.62,14.13-31.78,29.78c-0.9,4.45-0.54,8.81,0.3,13.23
			c0.83,4.37,2.16,8.9,1.55,13.39c0.58-0.58,1.16-1.16,1.75-1.75c-3.64,1.19-7.43,0.16-10.45-2.08c-3.36-2.48-5.21-6.39-6.09-10.38
			c-1.85-8.42,0.15-17.91,3.85-25.56c2.23-4.61,5.16-8.8,8.76-12.45c1.24-1.26,0.79-3.81-1.1-4.18c-8.88-1.73-17.63,2.56-23.1,9.52
			c-6.27,7.98-7.39,18.24-5.27,27.95c1.26,5.77,3.63,11.3,6.52,16.43c1.14-1.14,2.28-2.28,3.42-3.42
			c-6.31-4.66-8.89-12.9-8.47-20.48c0.47-8.52,5.19-16.11,11.32-21.8c3.7-3.43,7.94-6.2,12.43-8.48c2.54-1.29,0.77-5.35-1.93-4.57
			c-7.82,2.26-14.6,7.75-18.46,14.91c-3.96,7.35-4.58,16.18-1.79,24.06c1.6,4.53,4.17,8.66,7.65,11.99c1.45,1.38,4.47,0.5,4.27-1.77
			c-0.29-3.2-0.57-6.4-0.86-9.6c-1.05,0.8-2.11,1.61-3.16,2.41c0.47,0.11,0.02-0.21,0.29,0.15c-0.16-0.21,0.21,0.47,0.2,0.45
			c0.18,0.42,0.36,1.24,0.52,1.8c0.45,1.67,1.09,3.04,2.54,4.06c2.66,1.87,7.07,1.29,7.12-2.62c-0.83,0.83-1.67,1.67-2.5,2.5
			c-0.98-2.55-1.6-3.26-1.84-2.14c0.03-0.08,0.06-0.16,0.09-0.24c0.45-0.51,2.48-0.8,2.32-0.25c0.04-0.15-0.14-0.95-0.14-1.26
			c0-1.93,0.11-3.86,0.24-5.78c0.25-3.79,0.7-7.56,1.34-11.3c-1.64-0.22-3.27-0.44-4.91-0.66c0.02,3.8,0.05,7.6,0.07,11.41
			c0.01,1.35,1.14,2.5,2.5,2.5c1.47,0,2.35-1.15,2.5-2.5c0.68-6.13,1.35-12.26,2.03-18.38c-1.64,0.22-3.27,0.44-4.91,0.66
			c1.53,11,1.55,22.21,0.24,33.24c1.64-0.22,3.27-0.44,4.91-0.66c-1.93-5.03-1.6-10.57,1.11-15.25c-1.52-0.2-3.05-0.4-4.57-0.6
			c1.23,5.63,1.51,11.38,0.93,17.11c1.67,0,3.33,0,5,0c0.33-5.39,1.28-10.69,2.8-15.87c-1.64-0.22-3.27-0.44-4.91-0.66
			c-0.02,5.92-0.04,11.84-0.06,17.77c0,1.35,1.15,2.5,2.5,2.5c1.46,0,2.36-1.15,2.5-2.5c0.98-9.8,2.79-19.49,5.33-29
			c-1.52,0.2-3.05,0.4-4.57,0.6c1.22,1.66,1.66,3.51,1.08,5.5c1.61,0,3.21,0,4.82,0c-2.4-6.26-4.42-12.64-6.08-19.13
			c-0.7-2.75-4.9-2.15-4.91,0.66c-0.02,2.85-0.03,5.7-0.05,8.55c1.55-0.42,3.11-0.84,4.66-1.26c-1.57-2.93-2.64-6.15-3.01-9.46
			c-1.55,0.42-3.11,0.84-4.66,1.26c3.96,7.45,5.61,15.86,4.9,24.26c1.64-0.22,3.27-0.44,4.91-0.66c-1.14-5.67-2.27-11.35-3.41-17.02
			c-0.55-2.72-5.22-2.16-4.91,0.66c1,9.17,1.04,18.41,0.13,27.59c1.64-0.22,3.27-0.44,4.91-0.66c-2.08-9.95-4.16-19.91-6.24-29.86
			c-1.61,0.44-3.21,0.89-4.82,1.33c2.75,10.88,4.15,22.02,4.18,33.24c1.55-0.42,3.11-0.84,4.66-1.26
			c-4.18-9.84-8.36-19.68-12.54-29.51c-0.95-2.24-4.94-1.14-4.66,1.26c1.04,8.99,2.07,17.98,3.11,26.97
			c1.64-0.22,3.27-0.44,4.91-0.66c-3.52-9.02-7.05-18.05-10.57-27.07c-0.49-1.26-1.68-2.13-3.08-1.75
			c-1.29,0.35-2.13,1.77-1.75,3.08c2.01,6.85,4.01,13.69,6.02,20.54c1.52-0.64,3.05-1.28,4.57-1.93c-1.88-4.06-3.76-8.13-5.64-12.19
			c-1.44,0.84-2.88,1.68-4.32,2.52c4.11,6.46,6.7,13.82,7.36,21.46c1.55-0.42,3.11-0.84,4.66-1.26c-2.42-4.87-2.47-10.5-0.49-15.52
			c-1.22,0.5-2.45,1-3.67,1.49c6.4,3.68,8.99,11.96,6.24,18.7c1.39-0.37,2.79-0.74,4.18-1.1c-6.06-5.71-8.1-14.71-5.22-22.5
			c-1.22,0.5-2.45,1-3.67,1.49c5.85,4.33,7.88,12.6,5.34,19.27c1.52-0.2,3.05-0.4,4.57-0.6c-6.2-8.09-7.61-19.46-3.08-28.68
			c-1.44,0-2.88,0-4.32,0c3.54,7.56,3.78,16.76,0.52,24.47c1.31-0.17,2.62-0.34,3.93-0.51c-4.92-6.08-5.67-15.16-2-22.02
			c-1.44,0-2.88,0-4.32,0c3.84,5.23,5.41,11.99,3.83,18.34c-0.05,0.18-0.36,0.94-0.26,1.05c0.08,0.09,0.56-0.17,0.57-0.08
			c0,0.01-0.34-0.18-0.35-0.19c-0.23-0.23-0.47-0.44-0.68-0.7c-0.92-1.19-1.65-2.68-2.19-4.08c-1.15-2.94-1.66-6.05-1.55-9.2
			c0.12-3.51,1.09-6.93,2.84-9.98c-1.52-0.2-3.05-0.4-4.57-0.6c2.31,6.15,1.48,12.93-2.28,18.31c1.44,0,2.88,0,4.32,0
			c-3.6-6.14-2.56-14.4,2.46-19.45c-1.42-0.59-2.85-1.18-4.27-1.77c-0.08,3.05-0.9,5.96-2.4,8.61c1.55,0.42,3.11,0.84,4.66,1.26
			c-0.3-6.23,2.37-12.62,7.37-16.48c-1.22-0.5-2.45-1-3.67-1.49c0.81,4.66,0.18,9.4-1.57,13.77c1.61,0.44,3.21,0.89,4.82,1.33
			c0.54-3.57,2.07-6.76,4.63-9.32c-1.42-0.59-2.85-1.18-4.27-1.77c-0.14,1.6-0.28,3.2-0.41,4.79c-0.24,2.83,4.23,3.36,4.91,0.66
			c0.55-2.2,1.1-4.4,1.65-6.59c-1.61,0-3.21,0-4.82,0c1.18,3,1.84,6.09,1.91,9.31c1.64-0.22,3.27-0.44,4.91-0.66
			c-1.36-3.39-2.32-6.91-2.86-10.53c-1.39,0.81-2.79,1.62-4.18,2.43c3.44,3.75,5.16,8.71,4.96,13.77c1.64-0.22,3.27-0.44,4.91-0.66
			c-1.09-2.98-1.01-5.94,0.19-8.88c-1.61,0-3.21,0-4.82,0c2.46,6.32,3.37,13.21,2.33,19.94c1.64,0.22,3.27,0.44,4.91,0.66
			c0.25-2.57,0.5-5.15,0.76-7.72c-1.67,0-3.33,0-5,0c1.12,8.9,0.03,18.07-3.48,26.36c1.55,0.42,3.11,0.84,4.66,1.26
			c-0.08-6.86,1.02-13.59,3.24-20.08c-1.64-0.22-3.27-0.44-4.91-0.66c-0.02,6.17-0.04,12.34-0.06,18.51c1.67,0,3.33,0,5,0
			c-0.48-9.26,0.13-18.53,1.91-27.63c-1.61,0-3.21,0-4.82,0c0.96,6.5,0.06,13.15-2.3,19.26c1.61,0,3.21,0,4.82,0
			c-2.29-8.34-2.63-17.11-0.89-25.59c-1.52,0.2-3.05,0.4-4.57,0.6c3.35,7.84,3.11,17.2-0.55,24.88c1.44,0,2.88,0,4.32,0
			c-3.88-8.43-4.56-18.14-2.09-27.06c-1.52,0.2-3.05,0.4-4.57,0.6c3.66,6.22,4.87,13.78,3.28,20.83c-0.39,1.75-0.92,3.5-1.66,5.13
			c-0.06,0.14-0.29,0.44-0.25,0.56c-0.01-0.04,1.53,0.16,1.58,0.04c-0.02,0.05-0.49-0.75-0.47-0.71c-0.39-0.79-0.67-1.63-0.95-2.46
			c-1.2-3.63-1.69-7.42-1.48-11.24c0.22-4.21,1.37-8.35,3.33-12.08c-1.55-0.42-3.11-0.84-4.66-1.26
			c-0.85,15.09-0.02,30.21,2.38,45.12c0.15,0.95,1.2,1.69,2.08,1.79c1.07,0.13,1.86-0.35,2.49-1.19
			c10.56-14.13,12.23-33.93,5.44-50.04c-1.95-4.62-4.57-8.85-7.83-12.66c-0.92-1.07-2.59-0.84-3.54,0
			c-5.9,5.22-13.96,7.33-19.55,12.98c-3.34,3.38-5.1,7.7-5.31,12.43c-0.24,5.29,1.09,10.78,2.53,15.84
			c1.67,5.86,4.02,11.55,6.91,16.91C448.32,94.52,452.64,91.99,451.11,89.16L451.11,89.16z"/>
	</g>
</g>
<g>
	<g>
		<path class="st1" d="M505.32,83.62c5.37-3.83,10.74-7.67,16.11-11.5c2.57-1.84,0.31-5.97-2.52-4.32
			c-9.04,5.27-15.98,13.38-20.01,23c-0.37,0.89,0.19,2.1,0.9,2.63c0.84,0.63,1.85,0.66,2.78,0.2c12.2-6.14,21.51-17.43,25.36-30.52
			c0.62-2.12-1.81-3.9-3.67-2.82c-9.96,5.74-18.85,14.92-23.23,25.67c-1.08,2.64-1.26,6.05,1.37,7.86c2.78,1.91,6.11,0.38,8.76-0.98
			c4.81-2.47,9.15-5.97,12.63-10.1c4.05-4.81,7.06-10.41,8.67-16.49c0.48-1.83-1.22-3.6-3.08-3.08c-9.64,2.73-17.41,9.87-21.2,19.1
			c-0.75,1.83,1.41,3.54,3.08,3.08c12.28-3.39,22.95-11.86,28.99-23.08c0.88-1.63-0.2-3.8-2.16-3.76
			c-9.15,0.16-17.59,6.77-19.81,15.68c-0.48,1.94,1.21,3.45,3.08,3.08c10.88-2.17,19.22-12.13,19.86-23.12
			c0.12-2.06-2.17-2.9-3.76-2.16c-7.55,3.51-13.33,9.98-16.3,17.72c-0.35,0.91,0.17,2.09,0.9,2.63c0.87,0.65,1.81,0.62,2.78,0.2
			c9.99-4.36,16.79-14.38,17.68-25.15c0.13-1.58-1.71-2.89-3.16-2.41c-7.47,2.45-13.37,8.65-15.28,16.31
			c-0.55,2.19,1.74,3.81,3.67,2.82c8.65-4.42,14.99-13.18,16.35-22.82c0.31-2.17-1.58-3.85-3.67-2.82
			c-7.93,3.91-13.84,11.65-15.52,20.34c-0.35,1.8,1.13,3.65,3.08,3.08c10.25-3.03,17.63-13.71,16.43-24.41
			c-0.17-1.56-1.46-2.91-3.16-2.41c-6.49,1.89-11.83,7.52-13.06,14.23c-0.35,1.94-0.54,4.05,0.77,5.68
			c1.33,1.65,3.45,1.87,5.42,1.57c3.24-0.5,6.24-2.39,8.28-4.93c2.57-3.2,3.66-7.03,3.09-11.09c-0.22-1.61-2.44-2.26-3.67-1.49
			c-5.42,3.35-9.33,8.99-10.3,15.31c-0.19,1.23,0.21,2.45,1.45,2.95c1.14,0.46,2.48,0.08,3.12-1.02c2.58-4.44,3.95-9.46,3.98-14.59
			c0.02-3.23-4.87-3.21-5,0c-0.16,4.01-0.33,8.02-0.49,12.03c-0.11,2.63,3.35,3.2,4.66,1.26c3.94-5.84,6.17-12.62,6.66-19.63
			c0.09-1.35-1.22-2.5-2.5-2.5c-1.48,0-2.34,1.15-2.5,2.5c-0.86,7.25-2.51,14.39-4.81,21.32c-0.42,1.28,0.49,2.73,1.75,3.08
			c1.38,0.38,2.63-0.47,3.08-1.75c2.25-6.43,3.35-13.25,3.28-20.06c-0.01-1.23-0.94-2.31-2.17-2.46c-1.11-0.13-2.55,0.55-2.74,1.79
			c-1.19,7.75-3.13,15.37-5.86,22.72c-0.44,1.2-0.84,2.59-2.24,2.86c-1.65,0.33-3.41,0.07-5.08,0.29c-3.36,0.45-6.52,1.84-9.33,3.7
			c-3.26,2.16-6.13,4.84-8.92,7.56c1.18,1.18,2.36,2.36,3.54,3.54c6.37-7.49,11.85-15.69,16.22-24.5c0.75-1.51-0.12-4-2.16-3.76
			c-8.01,0.93-15.04,5.26-20.38,11.2c-5.76,6.41-9.47,14.24-13.07,21.97c-1.24,2.66,1.68,4.78,3.93,3.03
			c4.54-3.55,8.47-7.8,11.71-12.57c1.57-2.31,2.98-4.76,4.15-7.3c1.24-2.68,1.56-6.21-1.5-7.82c-4.61-2.42-9.9,1.52-13.41,4.19
			c-4.33,3.29-8.08,7.16-11.25,11.57c-3.55,4.94-6.2,10.53-7.84,16.38c-0.55,1.98,1.83,4.11,3.67,2.82
			c9.34-6.52,16.18-16.21,19.03-27.25c0.59-2.3-1.75-3.66-3.67-2.82c-9.94,4.29-17.49,13.69-19.64,24.29
			c-0.43,2.11,1.69,3.93,3.67,2.82c8.56-4.75,15.03-12.73,18.01-22.04c0.68-2.12-1.84-3.88-3.67-2.82
			c-8.71,5.03-15.38,12.87-19.16,22.17c1.61,0.44,3.21,0.89,4.82,1.33c1.17-3.2,2.35-6.4,3.52-9.6c0.95-2.6,2.54-5.54,2.28-8.39
			c-0.31-3.46-3.4-5.01-6.59-4.2c-2.83,0.72-5.46,2.47-7.32,4.71c-0.99,1.2-1.01,3.09,0.51,3.93c7.2,3.99,14.76-1.39,20.32-5.73
			c6.15-4.81,11.82-10.21,16.94-16.1c-1.31-1.01-2.62-2.02-3.93-3.03c-3.89,7.64-6.63,15.82-8.05,24.27
			c-0.33,1.96,1.68,4.15,3.67,2.82c10.84-7.2,19.11-17.67,23.66-29.85c0.86-2.31-2.6-4.31-4.18-2.43
			c-5.86,6.96-11.87,14.54-12.33,24.02c-0.08,1.6,1.66,2.87,3.16,2.41c9.84-3,16.94-12.94,16.28-23.27
			c-0.1-1.56-1.53-2.92-3.16-2.41c-11.16,3.46-19.25,14.29-19.32,25.99c-0.02,2.34,2.67,3.07,4.27,1.77
			c11.73-9.53,20.07-23.09,23.36-37.84c0.42-1.87-1.17-3.54-3.08-3.08c-11.51,2.82-20.99,11.51-25.06,22.59
			c-0.71,1.92,1.37,3.42,3.08,3.08c10.41-2.13,19.11-10.22,22.22-20.35c0.59-1.93-1.29-3.44-3.08-3.08
			c-10.54,2.13-19.36,10.62-22.01,21.02c-0.5,1.94,1.22,3.44,3.08,3.08c8.94-1.76,16.65-9.26,18.45-18.23
			c0.56-2.77,0.31-5.88-2.55-7.27c-2.33-1.12-5.38-0.62-7.71,0.26c-4.92,1.86-8.87,5.74-12.12,9.77c-3.82,4.72-6.75,10-8.75,15.74
			c-0.69,1.98,1.36,3.36,3.08,3.08c4.78-0.79,9.26-3.49,12.34-7.21c1.64-1.97,2.9-4.12,3.81-6.52c0.86-2.27,1.7-5.43,0.89-7.81
			c-0.98-2.85-4.06-3.49-6.69-2.78c-2.37,0.64-4.64,2.14-6.62,3.56c-4.25,3.04-7.86,6.91-10.51,11.42
			c-2.09,3.56-6.82,12.39-0.48,14.41c2.64,0.84,5.29-0.41,7.58-1.63c2.36-1.25,4.56-2.78,6.62-4.47c4.03-3.32,7.44-7.53,9.82-12.17
			c1.24-2.42,2.47-5.21,0.84-7.77c-1.25-1.98-3.67-2.73-5.9-2.79c-2.65-0.07-5.07,0.91-7.37,2.12c-2.6,1.36-5.01,3.12-7.15,5.13
			c-4.21,3.95-7.32,9.02-8.99,14.54c-0.38,1.26,0.45,2.77,1.75,3.08c5.9,1.4,11.02-2.19,14.8-6.37c3.63-4,8.26-9.38,7.6-15.17
			c-0.3-2.67-1.52-5.18-3.75-6.75c-2.6-1.82-5.87-1.4-8.59-0.11c-2.55,1.21-4.88,3.11-6.98,4.99c-2.09,1.87-3.94,3.96-5.63,6.19
			c-3.79,5-6.44,10.88-7.7,17.02c-0.39,1.89,1.14,3.52,3.08,3.08c10.87-2.48,19.86-11.08,22.98-21.76c0.41-1.41-0.78-3.36-2.41-3.16
			c-13.02,1.56-23.67,12.77-24.25,25.95c-0.06,1.35,1.19,2.5,2.5,2.5c6.11,0,11.84-3.15,15.79-7.71c4.28-4.94,6.59-11.15,8.25-17.38
			c0.52-1.94-1.23-3.44-3.08-3.08c-12.63,2.51-22.37,14.01-23.25,26.76c-0.14,2.01,2.19,2.96,3.76,2.16
			c11.01-5.62,19.19-16.45,21.54-28.59c0.33-1.69-0.71-3.01-2.41-3.16c-12.15-1.07-24.27,8.11-26.55,20.09
			c-0.38,2,1.13,3.38,3.08,3.08c9.37-1.47,16.65-10.01,17.17-19.37c0.09-1.58-1.67-2.89-3.16-2.41c-4.37,1.42-8.35,4.04-11.28,7.6
			c-1.47,1.79-2.7,3.71-3.61,5.83c-0.97,2.25-2.04,4.98-1.12,7.41c1.68,4.4,7.16,4.02,10.74,2.49c4.43-1.89,8.56-5.09,12.19-8.21
			c4.25-3.66,7.96-7.9,11.11-12.53c1.5-2.21-1.36-4.47-3.42-3.42c-5.38,2.73-8.82,8.84-8.31,14.87c0.14,1.66,1.48,2.79,3.16,2.41
			c9.55-2.12,17.96-8.12,23.22-16.35c1.16-1.82-0.77-4.32-2.82-3.67c-5.44,1.72-9.68,5.95-11.43,11.37
			c-0.55,1.71,0.9,2.97,2.41,3.16c11.38,1.45,22.17-7.85,23.32-19.02c0.17-1.69-1.73-2.75-3.16-2.41
			c-6.54,1.54-11.31,7.5-11.68,14.15c-0.07,1.24,1.21,2.64,2.5,2.5c7.86-0.87,14.07-7.09,14.91-14.96c0.26-2.43-3.65-3.47-4.66-1.26
			c-0.98,2.15-2.99,3.42-4.72,4.91c-2.01,1.73-3.73,3.97-4.04,6.67c-0.29,2.44,0.9,4.7,2.99,5.98c2.05,1.24,4.68,1.15,6.39-0.61
			c-1.31-1.01-2.62-2.02-3.93-3.03c-4.54,7.81-7.99,16.24-10.22,24.99c-0.48,1.88,1.21,3.53,3.08,3.08
			c4.48-1.09,8.23-3.74,10.99-7.39c1.13-1.5-0.39-3.87-2.16-3.76c-9.26,0.57-17.78,5.52-22.85,13.29c-1.44,2.22,1.33,4.5,3.42,3.42
			c5.98-3.07,10.44-8.79,11.99-15.33c0.39-1.65-1.2-3.86-3.08-3.08c-6.93,2.91-12.72,7.93-16.32,14.56
			c0.94-0.38,1.88-0.77,2.82-1.15c-10.79-4.27-22.44-6.4-34.04-6.22c-4.51,0.07-12.97-0.19-13.08,6.29c-0.05,3,2.54,5.21,5.48,4.68
			c2.62-0.47,4.47-2.59,5.83-4.73c3.28-5.14,4.81-11.4,4.36-17.48c-1.67,0-3.33,0-5,0c0.51,4.05,0.26,8.06-0.86,12
			c1.22-0.5,2.45-1,3.67-1.49c-6.93-5.14-14.3-9.63-22.04-13.44c-1.12-0.55-2.45-0.4-3.23,0.64c-0.7,0.93-0.76,2.46,0.2,3.28
			c1.04,0.9,2.09,1.8,3.13,2.71c1.39,1.2,3.66,0.81,4.18-1.1c1.37-5.01-1.72-10.44-6.71-11.84c0.58,0.58,1.16,1.16,1.75,1.75
			c-0.36-1.96-0.18-3.89,0.39-5.79c-1.64-0.22-3.27-0.44-4.91-0.66c0.22,3.58,0.13,7.2-0.37,10.76c-0.45,3.15,3.67,4.4,4.82,1.33
			c2-5.34,3.57-10.82,4.71-16.41c-1.64-0.22-3.27-0.44-4.91-0.66c0.04,5.8,0.07,11.59,0.11,17.39c0.01,2.25,2.68,3.19,4.27,1.77
			c2.47-2.22,4.92-4.48,7.42-6.66c0.62-0.54,1.63-1.25,2.22-1.34c0.81-0.12,1.3,0.09,1.76,0.46c3.41,2.72,2.54,7.91,2.34,11.81
			C470.12,65,471.06,70.7,476.19,73c5.08,2.28,10.88-0.12,15.36-2.72c6.47-3.75,12.77-7.82,19.14-11.74
			c-1.22-0.94-2.45-1.88-3.67-2.82c-1.83,6.61-4.47,12.92-7.89,18.86c-1.19,2.08,0.77,3.96,2.82,3.67
			c8.21-1.14,16.12-4.19,22.99-8.82c-0.84-1.44-1.68-2.88-2.52-4.32c-2.66,1.98-4.88,4.32-6.62,7.16c-1.28,2.09,1.31,4.79,3.42,3.42
			c3.99-2.58,7.37-5.82,10.18-9.64c1.49-2.03-1.41-4.75-3.42-3.42c-2.9,1.93-5.49,4.24-7.65,6.97c-0.7,0.89-1,1.99-0.39,3.03
			c0.55,0.94,1.77,1.46,2.82,1.15c6.38-1.9,11.38-6.72,13.68-12.94c0.81-2.2-1.89-3.73-3.67-2.82c-6.57,3.35-12.13,8.33-16.33,14.38
			c-0.63,0.9-0.35,2.29,0.39,3.03c0.84,0.84,2.01,0.86,3.03,0.39c5.48-2.52,10.02-7.03,12.59-12.48c0.48-1.02,0.44-2.2-0.39-3.03
			c-0.75-0.75-2.11-1-3.03-0.39c-6.96,4.63-12.89,10.56-17.5,17.54c-1.14,1.72,0.78,4.48,2.82,3.67
			c7.76-3.06,13.77-9.34,16.33-17.31c0.5-1.57-0.84-3.15-2.41-3.16c-7.51-0.05-14.9,3.23-19.82,8.92c-0.81,0.94-1.01,2.27-0.2,3.28
			c0.7,0.87,2.22,1.41,3.23,0.64c4.35-3.34,8.05-7.41,10.76-12.19c1.37-2.42,2.53-5.02,3.34-7.68c0.84-2.73,0.99-5.91-1.12-8.13
			c-3.9-4.11-10.49-0.64-14.31,1.76c-4.38,2.76-8.12,6.39-11.1,10.61c-3.24,4.57-5.46,9.92-6.36,15.45
			c-0.24,1.49,0.64,3.27,2.41,3.16c9.15-0.55,18.66-7.61,19.83-17.14c0.62-5.06-2.92-8.69-7.52-10.07
			c-4.23-1.26-9.01-0.79-13.21,0.34c-8.69,2.33-16.52,8.42-20.59,16.48c-1.17,2.32-2.45,5.1-0.86,7.55
			c1.41,2.17,4.33,2.81,6.72,2.23c4.65-1.12,7.65-6.55,5.91-11.04c-1.74-4.49-7.03-7.09-11.63-5.49c-4.7,1.64-7.73,6.67-6.86,11.58
			c0.97,5.51,7.26,7.32,11.8,4.93c4.09-2.15,6.47-7.25,4.83-11.68c-1.56-4.22-5.9-7.07-10.37-7.07c-4.76,0-8.75,3.37-10.49,7.63
			c-0.86,2.11-1.19,4.48-0.77,6.73c0.53,2.85,2.97,4.09,5.68,3.95c4.88-0.25,9.7-2.8,12.43-6.91c1.41-2.13,1.59-5-0.32-6.9
			c-1.54-1.53-3.84-2.11-5.96-2.12c-4.44-0.03-9.16,1.7-12.99,3.85c-4.03,2.27-7.5,5.42-10.2,9.16c-2.34,3.24-4.71,7.46-3.14,11.53
			c0.89,2.31,2.82,3.29,5.22,2.97c1.34-0.18,2.07-1.9,1.75-3.08c-0.4-1.45-1.73-1.93-3.08-1.75c0.24-0.03,0.38-0.04,0.62,0.04
			c0.21,0.07,0.14,0.2,0.29,0.29c-0.03-0.02-0.16-0.34-0.09-0.12c-0.1-0.36-0.21-0.66-0.2-1.25c0.01-1.06,0.47-2.03,1.09-3.16
			c1.52-2.8,3.55-5.25,5.96-7.33c2.31-1.99,5.04-3.62,7.9-4.68c2.5-0.92,5.85-1.99,8.4-1.28c0.37,0.1,0.76,0.35,0.87,0.4
			c0.14,0.07-0.06,0.21,0.02,0.03c-0.02,0.04-0.23,0.5-0.35,0.69c-0.79,1.23-1.98,2.23-3.22,2.98c-1.29,0.78-2.74,1.34-4.25,1.55
			c-0.37,0.05-0.76,0.07-1.13,0.08c-0.1,0-0.67-0.03-0.68-0.02c-0.07,0.08,0.52-0.82,0.12,0.06c0.06-0.12,0.19,0.77,0.14,0
			c-0.02-0.34-0.06-0.69-0.06-1.04c0.01-2.68,1.51-5.35,3.87-6.66c2.13-1.18,4.79-0.72,6.64,0.85c1.95,1.66,2.46,4.23,0.85,6.35
			c-1.21,1.6-4.49,3.19-5.92,0.95c-1.44-2.26,0.52-5.5,2.58-6.57c2.12-1.09,5.02-0.13,5.95,2.12c0.8,1.94-0.93,4.94-3.21,4.62
			c-0.18-0.02-0.61-0.32-0.53-0.15c0.06,0.14,0.19-0.51,0.24-0.67c0.14-0.4,0.32-0.78,0.5-1.16c0.69-1.43,1.5-2.79,2.41-4.08
			c3.57-5.02,9.02-8.75,14.91-10.45c2.89-0.84,6.08-1.33,9.1-0.93c2.17,0.29,4.97,1.21,5.73,3.27c0.99,2.69-1.31,6.43-2.97,8.42
			c-1.97,2.35-4.55,4.25-7.46,5.26c-1.39,0.48-2.82,0.8-4.3,0.88c0.8,1.05,1.61,2.11,2.41,3.16c1.34-8.26,5.73-15.73,12.24-20.99
			c1.55-1.25,3.24-2.34,5-3.28c1.53-0.82,3.36-1.84,5.16-1.73c3.31,0.2-0.63,7.62-1.41,9.09c-2.33,4.42-5.57,8.4-9.54,11.44
			c1.01,1.31,2.02,2.62,3.03,3.93c4.1-4.74,10-7.5,16.28-7.45c-0.8-1.05-1.61-2.11-2.41-3.16c-1.98,6.17-6.78,11.43-12.84,13.82
			c0.94,1.22,1.88,2.45,2.82,3.67c4.12-6.24,9.48-11.61,15.7-15.75c-1.14-1.14-2.28-2.28-3.42-3.42c-2.26,4.78-5.99,8.48-10.8,10.69
			c1.14,1.14,2.28,2.28,3.42,3.42c3.71-5.35,8.74-9.62,14.53-12.58c-1.22-0.94-2.45-1.88-3.67-2.82c-1.67,4.54-5.58,8.08-10.19,9.45
			c0.81,1.39,1.62,2.79,2.43,4.18c1.89-2.4,4.09-4.5,6.63-6.19c-1.14-1.14-2.28-2.28-3.42-3.42c-2.28,3.11-5.15,5.76-8.38,7.85
			c1.14,1.14,2.28,2.28,3.42,3.42c1.26-2.06,2.88-3.91,4.83-5.36c1.08-0.8,1.63-2.16,0.9-3.42c-0.65-1.11-2.3-1.65-3.42-0.9
			c-6.56,4.42-13.96,7.23-21.8,8.32c0.94,1.22,1.88,2.45,2.82,3.67c3.63-6.3,6.45-13.05,8.4-20.06c0.57-2.07-1.8-3.97-3.67-2.82
			c-5.78,3.55-11.56,7.1-17.34,10.64c-2.27,1.39-4.58,2.76-7.15,3.52c-1.94,0.58-4.23,0.94-6.01-0.26
			c-1.72-1.16-2.22-3.24-2.31-5.19c-0.13-2.53,0.25-5.03,0.32-7.56c0.12-4.35-1.67-9.92-5.86-11.95c-2.92-1.42-5.96-0.56-8.41,1.37
			c-2.9,2.27-5.55,4.91-8.29,7.37c1.42,0.59,2.85,1.18,4.27,1.77c-0.04-5.8-0.07-11.59-0.11-17.39c-0.02-2.74-4.33-3.5-4.91-0.66
			c-1.14,5.59-2.72,11.06-4.71,16.41c1.61,0.44,3.21,0.89,4.82,1.33c0.57-4.02,0.79-8.03,0.55-12.09c-0.17-2.77-4.08-3.45-4.91-0.66
			c-0.83,2.78-0.91,5.6-0.39,8.45c0.15,0.84,0.96,1.53,1.75,1.75c2.44,0.68,3.86,3.36,3.22,5.69c1.39-0.37,2.79-0.74,4.18-1.1
			c-1.04-0.9-2.09-1.8-3.13-2.71c-1.01,1.31-2.02,2.62-3.03,3.93c7.74,3.81,15.11,8.3,22.04,13.44c1.33,0.99,3.27-0.08,3.67-1.49
			c1.22-4.33,1.6-8.86,1.04-13.32c-0.17-1.34-1.03-2.5-2.5-2.5c-1.28,0-2.6,1.15-2.5,2.5c0.3,4.08-0.31,8.24-2.05,11.97
			c-0.76,1.63-1.69,3.72-3.16,4.85c-0.2,0.15-0.51,0.25-0.69,0.42c-0.75,0.74-0.24-0.11-0.19,0.07c0.78,2.96,0.18,0.05,0.31,0.17
			c0.33,0.3-0.24,0.52,0.1,0.05c-0.02,0.02,0.12-0.21,0.2-0.3c0.94-1.09,3.85-0.84,5.11-0.9c2.31-0.11,4.61-0.13,6.92-0.05
			c4.55,0.15,9.07,0.66,13.53,1.55c5.13,1.03,10.16,2.53,15.02,4.45c0.99,0.39,2.34-0.26,2.82-1.15c2.94-5.4,7.63-9.87,13.33-12.26
			c-1.03-1.03-2.05-2.05-3.08-3.08c-1.28,5.37-4.79,9.82-9.69,12.34c1.14,1.14,2.28,2.28,3.42,3.42
			c4.06-6.23,11.1-10.36,18.53-10.82c-0.72-1.25-1.44-2.51-2.16-3.76c-1.96,2.6-4.87,4.33-8,5.09c1.03,1.03,2.05,2.05,3.08,3.08
			c2.13-8.36,5.38-16.34,9.71-23.8c1.42-2.44-1.92-5.08-3.93-3.03c-0.45,0.46-0.05-0.03,0.1,0.02c0.17-0.02,0.11-0.03-0.17-0.02
			c0.24,0.02,0.2,0-0.11-0.07c0.26,0.12-0.39-0.26-0.39-0.26c0.22,0.18-0.26-0.32-0.1-0.11c-0.1-0.13-0.32-0.75-0.23-0.3
			c-0.05-0.28-0.01-0.56,0.05-0.83c0.13-0.64,0.51-1.22,0.91-1.73c2.2-2.79,5.64-4.21,7.18-7.59c-1.55-0.42-3.11-0.84-4.66-1.26
			c-0.53,4.93-4.98,9.41-9.91,9.96c0.83,0.83,1.67,1.67,2.5,2.5c0.25-4.48,3.7-8.31,8.01-9.33c-1.05-0.8-2.11-1.61-3.16-2.41
			c-0.89,8.71-9.87,15.1-18.32,14.02c0.8,1.05,1.61,2.11,2.41,3.16c1.2-3.72,4.21-6.7,7.94-7.88c-0.94-1.22-1.88-2.45-2.82-3.67
			c-4.58,7.17-11.94,12.21-20.23,14.05c1.05,0.8,2.11,1.61,3.16,2.41c-0.38-4.41,1.88-8.54,5.83-10.55
			c-1.14-1.14-2.28-2.28-3.42-3.42c-4.52,6.64-10.42,12.33-17.23,16.58c-1.46,0.91-2.99,1.94-4.53,2.41
			c-0.62,0.19-1.26,0.33-1.75,0.35c-0.19,0.01-0.39,0.01-0.58,0.01c-0.03,0-0.5-0.04-0.17,0.01c-0.17-0.02-0.91-0.31-0.62-0.16
			c-0.18-0.09-0.2-0.25-0.08-0.04c-0.02-0.04-0.16-0.29-0.12-0.13c0.11,0.39,0-0.14,0-0.28c0.04-0.92,0.45-1.92,0.78-2.77
			c0.62-1.61,1.52-3.17,2.57-4.54c2.36-3.1,5.65-5.48,9.36-6.68c-1.05-0.8-2.11-1.61-3.16-2.41c-0.41,7.31-6.38,13.43-13.5,14.55
			c1.03,1.03,2.05,2.05,3.08,3.08c1.9-9.98,11.62-17.31,21.73-16.42c-0.8-1.05-1.61-2.11-2.41-3.16
			c-2.13,10.99-9.27,20.51-19.24,25.6c1.25,0.72,2.51,1.44,3.76,2.16c0.73-10.64,9.21-19.87,19.57-21.94
			c-1.03-1.03-2.05-2.05-3.08-3.08c-2.48,9.32-7.81,21.42-19.21,21.42c0.83,0.83,1.67,1.67,2.5,2.5
			c0.45-10.21,9.02-19.72,19.25-20.95c-0.8-1.05-1.61-2.11-2.41-3.16c-2.65,9.07-10.3,16.16-19.49,18.26
			c1.03,1.03,2.05,2.05,3.08,3.08c1.8-8.8,6.63-16.77,13.66-22.38c1.61-1.28,3.62-2.93,5.71-3.26c1.57-0.24,2.61,0.65,3.16,2.06
			c1.51,3.88-2.07,8.02-4.44,10.91c-2.63,3.2-6.67,7.84-11.35,6.73c0.58,1.03,1.16,2.05,1.75,3.08c2.25-7.46,7.66-13.71,14.68-17.1
			c1.48-0.72,2.77-1.11,4.31-1.01c0.34,0.02,0.18-0.02,0.6,0.1c0.17,0.05,0.35,0.09,0.51,0.15c0.4,0.16-0.25-0.14,0.1,0.07
			c0.1,0.06,0.25,0.03,0.24,0.3c-0.04,0.86-0.7,1.83-1.09,2.57c-0.51,0.97-1.06,1.92-1.65,2.85c-1.07,1.67-2.29,3.23-3.64,4.69
			c-2.81,3.03-6.1,5.53-9.78,7.41c-0.7,0.36-1.41,0.74-2.19,0.89c0.05-0.01-0.81,0.17-0.59,0.09c-1.02,0.35-0.19-0.07-0.22-0.06
			c0.03-0.01,0.24,0.18,0.24,0.18c0.12-0.05,0.6-2.17,0.7-2.45c0.34-0.92,0.72-1.82,1.16-2.7c1.75-3.56,4.12-6.73,7.02-9.43
			c2.46-2.29,5.88-4.96,9.01-5.53c0.97-0.18,0.2,0.06,0.2,0.01c0-0.02-0.6-0.39-0.31-0.42c0.08-0.01,0,1.08-0.02,1.22
			c-0.1,0.93-0.33,1.86-0.61,2.76c-0.58,1.86-1.54,3.64-2.75,5.16c-2.58,3.23-6.17,5.38-10.25,6.06c1.03,1.03,2.05,2.05,3.08,3.08
			c1.41-4.04,3.39-7.85,5.84-11.35c2.29-3.28,5.11-6.58,8.41-8.89c1.63-1.14,3.45-2.14,5.45-2.41c0.55-0.08,1.42-0.2,1.93,0.06
			c-0.11-0.06,0-0.26,0,0.26c0,0.47-0.06,0.89-0.16,1.35c-0.71,3.36-2.37,6.45-4.73,8.93c-2.76,2.91-6.26,4.86-10.19,5.63
			c1.03,1.03,2.05,2.05,3.08,3.08c2.25-8.83,9.61-15.73,18.52-17.53c-1.03-1.03-2.05-2.05-3.08-3.08
			c-2.62,8.54-10.01,15.07-18.73,16.85c1.03,1.03,2.05,2.05,3.08,3.08c3.47-9.45,11.84-16.71,21.57-19.1
			c-1.03-1.03-2.05-2.05-3.08-3.08c-3.12,14-10.94,26.59-22.07,35.63c1.42,0.59,2.85,1.18,4.27,1.77
			c0.06-9.44,6.62-18.36,15.65-21.17c-1.05-0.8-2.11-1.61-3.16-2.41c0.51,8.1-4.8,16.06-12.61,18.45c1.05,0.8,2.11,1.61,3.16,2.41
			c0.38-8,5.93-14.63,10.86-20.48c-1.39-0.81-2.79-1.62-4.18-2.43c-4.07,10.9-11.68,20.43-21.36,26.86
			c1.22,0.94,2.45,1.88,3.67,2.82c1.35-8.03,3.86-15.82,7.55-23.08c1.22-2.39-1.96-5.29-3.93-3.03c-4.63,5.33-9.7,10.25-15.18,14.7
			c-2.52,2.04-5.1,4.09-7.99,5.58c-2.45,1.26-5.46,2.2-8.04,0.77c0.17,1.31,0.34,2.62,0.51,3.93c1.22-1.47,2.71-2.67,4.55-3.26
			c0.01,0,1.25-0.33,1.23-0.25c-0.08-0.01-0.16-0.03-0.23-0.07c-0.23-0.47-0.28-0.51-0.14-0.1c-0.1,0.32-0.17,1.24-0.36,1.82
			c-1.6,4.87-3.54,9.66-5.3,14.47c-0.46,1.27,0.52,2.74,1.75,3.08c1.43,0.39,2.56-0.49,3.08-1.75c3.27-8.05,9.36-14.85,16.86-19.18
			c-1.22-0.94-2.45-1.88-3.67-2.82c-2.6,8.09-8.3,14.93-15.72,19.05c1.22,0.94,2.45,1.88,3.67,2.82c1.92-9.5,8.45-17.46,17.34-21.3
			c-1.22-0.94-2.45-1.88-3.67-2.82c-2.51,9.75-8.46,18.49-16.73,24.27c1.22,0.94,2.45,1.88,3.67,2.82
			c2.44-8.72,7.36-16.58,14.07-22.66c1.64-1.49,3.38-2.85,5.22-4.08c1.51-1.01,3.14-2.16,4.79-2.4c0.24-0.03,0.76-0.02,1.11-0.01
			c-0.17,0,0.04,0.1,0.19,0.11c-0.44-0.03-0.01-0.66-0.17-0.13c-0.13,0.42-0.36,1.05-0.6,1.55c-1.07,2.22-2.29,4.36-3.66,6.4
			c-3.04,4.55-6.85,8.53-11.16,11.9c1.31,1.01,2.62,2.02,3.93,3.03c3.29-7.07,6.62-14.41,11.76-20.36
			c4.44-5.14,10.46-9.53,17.37-10.33c-0.72-1.25-1.44-2.51-2.16-3.76c-4.18,8.42-9.34,16.33-15.44,23.49
			c-2.06,2.42,1.2,5.81,3.54,3.54c4.51-4.4,9.89-9.74,16.61-9.98c1.76-0.06,3.57,0.09,5.27-0.52c1.86-0.67,3.23-2.07,4.05-3.85
			c1.68-3.63,2.82-7.61,3.89-11.45c1.24-4.46,2.2-8.98,2.9-13.55c-1.64-0.22-3.27-0.44-4.91-0.66c0.07,6.41-0.98,12.69-3.1,18.73
			c1.61,0.44,3.21,0.89,4.82,1.33c2.44-7.37,4.07-14.94,4.98-22.65c-1.67,0-3.33,0-5,0c-0.43,6.15-2.54,12.01-5.98,17.11
			c1.55,0.42,3.11,0.84,4.66,1.26c0.16-4.01,0.33-8.02,0.49-12.03c-1.67,0-3.33,0-5,0c-0.03,4.27-1.15,8.38-3.3,12.07
			c1.52,0.64,3.05,1.28,4.57,1.93c0.78-5.09,3.6-9.61,8-12.33c-1.22-0.5-2.45-1-3.67-1.49c0.35,2.5-0.79,5.2-2.48,7.01
			c-0.87,0.94-1.9,1.74-3.09,2.25c-0.61,0.26-1.31,0.48-1.97,0.56c-0.13,0.02-0.54,0.07-0.69,0.02c-0.03-0.01,0.17,0.34,0.18,0.18
			c0.38-5.53,4.38-10.43,9.69-11.98c-1.05-0.8-2.11-1.61-3.16-2.41c0.95,8.51-4.47,17.14-12.76,19.59c1.03,1.03,2.05,2.05,3.08,3.08
			c1.45-7.55,6.32-13.95,13.22-17.35c-1.22-0.94-2.45-1.88-3.67-2.82c-1.2,8.49-6.4,15.92-14.05,19.83
			c1.22,0.94,2.45,1.88,3.67,2.82c1.48-5.93,5.95-10.9,11.79-12.82c-1.05-0.8-2.11-1.61-3.16-2.41
			c-0.75,9.12-6.89,17.21-15.21,20.83c1.22,0.94,2.45,1.88,3.67,2.82c2.51-6.55,7.67-11.8,14-14.73c-1.25-0.72-2.51-1.44-3.76-2.16
			c-0.52,8.88-7.55,16.58-16.19,18.3c1.03,1.03,2.05,2.05,3.08,3.08c1.68-6.76,8-11.89,14.99-12.01c-0.72-1.25-1.44-2.51-2.16-3.76
			c-5.45,10.12-14.92,17.71-26,20.78c1.03,1.03,2.05,2.05,3.08,3.08c3.1-7.55,9.89-13.39,17.71-15.6c-1.03-1.03-2.05-2.05-3.08-3.08
			c-2.32,8.75-7.9,16.56-15.47,21.54c-1.81,1.19-3.92,2.63-6.05,3.15c-0.32,0.08-0.82,0.12-0.87,0.06c-0.35-0.46,0.44-2,0.65-2.46
			c2.04-4.48,4.89-8.66,8.17-12.32c3.68-4.09,7.94-7.54,12.71-10.29c-1.22-0.94-2.45-1.88-3.67-2.82
			c-3.5,11.91-11.99,21.95-23.06,27.53c1.22,0.94,2.45,1.88,3.67,2.82c3.51-8.38,9.89-15.46,17.72-20.01
			c-0.84-1.44-1.68-2.88-2.52-4.32c-5.37,3.83-10.74,7.67-16.11,11.5c-1.1,0.78-1.62,2.18-0.9,3.42
			C502.54,83.81,504.22,84.41,505.32,83.62L505.32,83.62z"/>
	</g>
</g>
<g>
	<g>
		<path class="st1" d="M499.62,99.65c11.65-3.04,23.41-5.74,35.25-7.92c10.27-1.89,20.93-3.27,31.35-1.88
			c5.68,0.76,11.22,2.45,16.22,5.24c0-1.44,0-2.88,0-4.32c-17.63,9.76-38.73,13.04-58.53,9.31c-5.73-1.08-11.34-2.73-16.74-4.92
			c-0.22,1.64-0.44,3.27-0.66,4.91c8.55,0.32,17.1,0.64,25.65,0.97c2.6,0.1,3.24-3.37,1.26-4.66c-8.32-5.4-19.31-5.75-28.04-1.11
			c-1.77,0.94-1.56,4.24,0.6,4.57c9.99,1.55,20.22,0.67,29.73-2.82c2.15-0.79,2.59-4.23,0-4.82c-5.69-1.31-11.51-1.34-17.22-0.13
			c-2.34,0.5-2.43,4.38,0,4.82c11.02,1.98,22.38,1.28,33.02-2.22c2.45-0.81,2.28-3.95,0-4.82c-7.37-2.8-15.77-2.09-22.67,1.67
			c-2.08,1.13-1.25,3.81,0.6,4.57c8.66,3.55,18.58,3.01,26.95-1.07c2-0.98,1.35-4.01-0.6-4.57c-9.16-2.65-19.18-1.43-27.46,3.3
			c-1.99,1.14-1.34,3.86,0.6,4.57c8.76,3.22,18.7,3.11,27.38-0.32c2.31-0.91,2.42-3.94,0-4.82c-9.16-3.31-19.35-2.65-28.12,1.49
			c-2.1,0.99-1.25,3.92,0.6,4.57c9.72,3.42,20.9,2.09,29.57-3.47c1.71-1.09,1.61-4.09-0.6-4.57c-6.86-1.5-13.82-0.75-20.24,2.06
			c-2.09,0.91-1.28,4,0.6,4.57c9.49,2.88,20.11,1.39,28.42-4.02c1.74-1.13,1.57-4.01-0.6-4.57c-3.68-0.95-7.5-1.02-11.22-0.24
			c-3.44,0.71-7.24,2.25-9.83,4.68c-1.5,1.4-2.23,3.51-1.34,5.45c0.84,1.83,2.66,2.76,4.46,3.44c3.04,1.15,6.41,1.26,9.57,0.62
			c3.59-0.74,7.01-2.68,9.4-5.46c1.05-1.22,0.96-3.05-0.51-3.93c-6.59-3.94-15.03-3.12-20.93,1.66c-1.82,1.47-0.18,4.15,1.77,4.27
			c6.22,0.36,12.49-0.44,18.43-2.33c2.24-0.72,2.51-4.23,0-4.82c-4.24-0.99-8.61-0.92-12.8,0.28c-2.39,0.68-2.37,4.13,0,4.82
			c5.42,1.59,11.23,0.92,16.18-1.76c1.98-1.07,1.36-3.93-0.6-4.57c-3.23-1.06-6.69-1.12-9.97-0.22c-2.29,0.62-2.47,4.3,0,4.82
			c2.2,0.47,4.45,0.71,6.7,0.61c2.08-0.1,4.68-0.27,6.52-1.36c2.03-1.21,2.58-3.97,0.68-5.55c-1.69-1.4-4.47-0.86-5.03,1.43
			c-0.37,1.55,0.74,3.19,2.41,3.16c1.42-0.02,2.85-0.04,4.27-0.07c-0.22-1.64-0.44-3.27-0.66-4.91c-2.32,0.85-4.35,2.03-6.23,3.64
			c-0.98,0.85-0.95,2.69,0,3.54c2.81,2.49,6.86,1.32,8.25-2.04c0.37-0.9-0.19-2.1-0.9-2.63c-0.87-0.65-1.81-0.62-2.78-0.2
			c-13.35,5.82-28.48,7.66-42.83,5.23c0,1.61,0,3.21,0,4.82c5.28-1.94,10.96-2.59,16.52-1.65c0.22-1.64,0.44-3.27,0.66-4.91
			c-8.16-0.53-16.32-1.07-24.48-1.6c0,1.67,0,3.33,0,5c5.63-0.02,11.25-0.05,16.88-0.07c3.22-0.01,3.22-4.96,0-5
			c-5.24-0.06-10.48-0.12-15.72-0.19c0.22,1.64,0.44,3.27,0.66,4.91c6.58-1.29,13.26-1.87,19.97-1.78c0-1.67,0-3.33,0-5
			c-5.02,0.26-9.81,1.5-14.34,3.65c-2.33,1.11-1.07,4.63,1.26,4.66c8.94,0.11,17.78-2.12,25.63-6.41c1.92-1.05,1.42-3.99-0.6-4.57
			c-7.92-2.27-16.45-0.34-22.77,4.87c-1.53,1.26-0.54,3.66,1.1,4.18c8.18,2.56,16.96,1.89,24.75-1.61c1.89-0.85,1.47-4.23-0.6-4.57
			c-4.49-0.73-9.01-0.48-13.35,0.95c-1.05,0.35-1.84,1.27-1.84,2.41c0,1,0.77,2.25,1.84,2.41c4.72,0.69,9.39,0.58,14.06-0.41
			c2.77-0.59,2.13-4.97-0.66-4.91c-4,0.08-7.99,0.16-11.99,0.24c-3.23,0.06-3.21,4.85,0,5c2.2,0.11,4.4,0.21,6.6,0.32
			c2.84,0.14,3.36-4.18,0.66-4.91c-5.5-1.48-10.98,0.03-16.28,1.59c-5.15,1.52-10.14,2.48-15.53,1.92
			c-4.55-0.48-9.87-1.92-13.41-4.98c-1.35-1.17-2.61-2.67-2.7-4.53c-0.11-2.27,1.68-4.36,2.97-6.06c3.59-4.75,7.81-9.04,12.39-12.83
			c0.75-0.62,0.88-1.9,0.52-2.73c-0.44-1-1.25-1.4-2.28-1.54c-4.21-0.55-8.5-0.17-12.57,1.05c0.94,1.22,1.88,2.45,2.82,3.67
			c2.87-5.25,5.11-11.83,2.93-17.74c-1.84-4.99-6.62-9.28-12.21-8.8c0.72,1.25,1.44,2.51,2.16,3.76c2.66-3.48,6.02-6.39,9.76-8.64
			c-0.84-1.44-1.68-2.88-2.52-4.32c-3.86,2.55-7.72,5.11-11.58,7.66c-1.97,1.3-1.34,4.73,1.26,4.66c2.26-0.06,4.51-0.12,6.77-0.19
			c1.05-0.03,2.09-0.06,3.14-0.09c0.22-0.01,1.26,0.13,1.48-0.02c0.07-0.05,0.74,0.77-0.21-0.24c-0.46-0.49-0.18-0.19-0.22,0.14
			c-0.52,3.58-3,6.41-3.76,9.92c-0.66,3.06-0.13,6.76,2.25,8.99c3.25,3.04,7.45,1.16,10.72-0.8c3.79-2.28,7.19-5.21,9.99-8.62
			c-1.31-1.01-2.62-2.02-3.93-3.03c-2.46,3.7-4.66,7.55-6.58,11.55c-0.85,1.78-2.22,3.93-2.13,5.98c0.1,2.47,2.15,3.88,4.44,4.13
			c3.47,0.37,7-1.28,9.33-3.8c2.59-2.81,3.74-6.45,3.11-10.22c-0.28-1.66-2.39-2.19-3.67-1.49c-5.16,2.8-8.98,7.62-10.61,13.25
			c-0.7,2.41,2.43,4.19,4.18,2.43c2.72-2.74,4.76-6.1,5.88-9.8c0.55-1.82,1.09-3.98,0.49-5.85c-0.59-1.83-2.18-3.06-4.05-3.32
			c-3.56-0.51-6.84,1.81-9.43,3.98c-2.72,2.28-5,5.23-6.52,8.44c-1.5,3.17-3.5,8.04-0.72,11.07c2.67,2.91,6.97,1.65,10.08,0.29
			c6.15-2.68,11.59-8.46,13.29-15.04c0.51-1.95,0.34-4.13-1.22-5.57c-1.47-1.35-3.64-1.47-5.53-1.36c-3.36,0.2-6.63,1.24-9.51,2.98
			c-5.86,3.57-10.02,9.79-10.55,16.68c-0.15,1.99,0.09,4.17,1.94,5.33c1.56,0.98,3.49,0.86,5.21,0.39c3.02-0.83,5.49-2.86,7.25-5.4
			c3.5-5.05,3.66-12.19-0.04-17.16c-4.06-5.46-11.09-7.9-17.73-6.94c-6.92,1.01-12.77,5.99-16.19,11.9
			c-0.89,1.53-1.6,3.16-2.22,4.81c-0.63,1.71,1.35,3.74,3.08,3.08c3.81-1.46,8.12-3.27,9.96-7.22c1.6-3.46,0.46-8.27-2.98-10.2
			c-4.38-2.45-8.66,1.92-11.55,4.77c-3.15,3.1-5.91,6.66-8.14,10.48c-2.5,4.28-4.37,8.96-5.51,13.79c-0.33,1.42,0.44,2.57,1.75,3.08
			c3.04,1.18,6.28-0.7,7.78-3.38c1.62-2.9,1.32-6.45-1.11-8.81c-2.35-2.28-5.8-2.89-8.93-2.28c-3.47,0.67-6.2,3.18-8.16,5.99
			c-2.13,3.05-3.74,6.86-4.57,10.47c-0.86,3.75-0.74,7.87,1.44,11.17c1.88,2.84,5.05,5.04,8.59,4.78c3.61-0.27,6.45-2.55,8.39-5.49
			c4.68-7.13,3.93-17.19,0.12-24.48c-0.67-1.29-2.23-1.42-3.42-0.9c-3.22,1.43-5.91,4.16-7.34,7.37c-1.45,3.25-2.34,7.98,0.7,10.63
			c2.56,2.24,6.65,2.05,9.33,0.11c3.21-2.33,4.17-6.35,4.77-10.05c0.23-1.42-0.64-3.36-2.41-3.16c-6.78,0.74-12.76,5.78-14.03,12.62
			c-0.4,2.17,1.65,3.85,3.67,2.82c5.49-2.8,9.38-9.48,8.21-15.7c-0.67-3.57-4.48-4.92-7.55-3.34c-3.26,1.68-3.66,5.49-3.51,8.77
			c0.1,2.04,2.74,3.46,4.27,1.77c2.86-3.18,3.96-7.53,2.8-11.66c-0.56-1.98-2.74-2.22-4.18-1.1c-4.36,3.4-7.43,8.38-8.58,13.78
			c-0.23,1.09,0.15,2.24,1.15,2.82c0.88,0.51,2.36,0.47,3.03-0.39c2.8-3.57,2.3-8.29-0.44-11.77c-2.74-3.48-7.09-5.48-10.84-7.68
			c-1.05-0.62-2.1-1.23-3.15-1.85c-1.1-0.64-2.22-1.35-3.52-1.45c-2.64-0.19-3.99,1.79-4.67,4.06c-1.19,3.98-1.31,8.2-0.61,12.28
			c0.8,4.67,2.92,8.98,5.94,12.61c1.82,2.18,5.45-0.66,3.93-3.03c-3.66-5.71-5.18-12.67-3.97-19.37c-1.61,0-3.21,0-4.82,0
			c2.57,10.16,8.35,19.45,16.39,26.18c1.01-1.31,2.02-2.62,3.03-3.93c-6.24-4.15-9.74-12.18-8.42-19.58c-1.61,0-3.21,0-4.82,0
			c2.63,7.02,6.05,13.7,10.29,19.89c1.21,1.77,3.9,1.53,4.57-0.6c1.78-5.69,2.46-11.71,1.98-17.65c-1.55,0.42-3.11,0.84-4.66,1.26
			c2.89,6.04,6.68,11.59,11.17,16.55c0.87,0.96,2.67,0.98,3.54,0c2.62-2.97,3.13-6.91,1.48-10.49c-0.46-0.99-1.83-1.42-2.82-1.15
			c-1.14,0.31-1.71,1.3-1.84,2.41c-0.48,4.28,1.4,8.78,4.79,11.44c1.55,1.22,3.46,0.77,4.18-1.1c0.93-2.4,1.04-4.9,0.61-7.42
			c-1.61,0.44-3.21,0.89-4.82,1.33c0.8,2.86,2.21,5.4,4.14,7.65c1.44,1.68,4.28,0.29,4.27-1.77c-0.02-3.13-1.21-6.02-3.35-8.29
			c-0.76-0.8-2.09-0.94-3.03-0.39c-1.04,0.61-1.31,1.71-1.15,2.82c0.27,1.95,0.55,3.9,0.82,5.84c0.19,1.34,1.89,2.07,3.08,1.75
			c1.44-0.4,1.94-1.73,1.75-3.08c-0.27-1.95-0.55-3.9-0.82-5.84c-1.39,0.81-2.79,1.62-4.18,2.43c1.24,1.32,1.87,2.94,1.89,4.75
			c1.42-0.59,2.85-1.18,4.27-1.77c-1.36-1.59-2.3-3.44-2.86-5.45c-0.36-1.3-1.77-2.1-3.08-1.75c-1.41,0.39-1.97,1.74-1.75,3.08
			c0.28,1.64-0.02,3.23-0.61,4.76c1.39-0.37,2.79-0.74,4.18-1.1c-2.49-1.96-3.68-4.75-3.32-7.91c-1.55,0.42-3.11,0.84-4.66,1.26
			c0.66,1.42,0.32,3.27-0.7,4.43c1.18,0,2.36,0,3.54,0c-4.21-4.65-7.68-9.88-10.39-15.54c-1.06-2.2-4.86-1.17-4.66,1.26
			c0.45,5.55-0.15,11.01-1.8,16.32c1.52-0.2,3.05-0.4,4.57-0.6c-3.99-5.82-7.3-12.08-9.78-18.69c-0.39-1.04-1.24-1.84-2.41-1.84
			c-1.03,0-2.22,0.77-2.41,1.84c-1.74,9.71,2.48,19.75,10.72,25.23c2.33,1.55,5.22-2.09,3.03-3.93
			c-7.43-6.22-12.72-14.58-15.1-23.97c-0.58-2.28-4.37-2.48-4.82,0c-1.45,8.02,0.06,16.34,4.47,23.23c1.31-1.01,2.62-2.02,3.93-3.03
			c-2.47-2.96-4.02-6.61-4.66-10.4c-0.31-1.82-0.34-3.69-0.19-5.53c0.07-0.81,0.19-1.61,0.36-2.4c0.07-0.33,0.83-2.41,0.73-2.54
			c-0.81,0.11-1.06,0.27-0.74,0.47c0.15,0.09,0.3,0.18,0.46,0.26c0.56,0.32,1.12,0.66,1.68,0.99c0.98,0.58,1.96,1.15,2.94,1.73
			c1.94,1.14,3.92,2.22,5.79,3.46c1.49,0.98,3,2.17,3.79,3.81c0.54,1.11,0.88,2.89,0.05,3.95c1.39,0.81,2.79,1.62,4.18,2.43
			c1-4.67,3.53-8.64,7.29-11.57c-1.39-0.37-2.79-0.74-4.18-1.1c0.67,2.38,0.16,4.94-1.52,6.8c1.42,0.59,2.85,1.18,4.27,1.77
			c-0.06-1.37-0.36-3.94,1.03-4.45c-0.04,0.01,0.37-0.09,0.46-0.01c-0.01-0.01-0.3-0.02-0.3-0.05c0.07,0.73,0.08,1.52-0.01,2.27
			c-0.43,3.54-2.71,6.59-5.85,8.19c1.22,0.94,2.45,1.88,3.67,2.82c0.83-4.49,4.54-8.44,9.21-8.95c-0.8-1.05-1.61-2.11-2.41-3.16
			c-0.38,2.32-0.7,5.15-2.4,6.92c-0.51,0.53-1.23,0.87-1.92,0.96c-0.65,0.09-1.36-0.07-1.64-0.33c-1.07-1.03,0.07-4.1,0.76-5.36
			c1.15-2.11,2.89-3.64,5.07-4.61c-1.14-0.3-2.28-0.6-3.42-0.9c2.5,4.78,3.09,10.45,1.59,15.64c-0.97,3.37-4.25,8.75-8.39,6.15
			c-4.66-2.93-2.78-9.56-1.03-13.59c1.69-3.89,4.55-8.94,9.38-8.37c1.58,0.19,3.17,1.21,3.05,2.69c-0.04,0.51-0.4,1.34-0.93,1.86
			c-0.25,0.25-0.51,0.41-0.76,0.48c-0.56,0.14-0.21,0.03-0.12,0.03c-0.31-0.01-0.36-0.01-0.14,0c-0.19-0.05-0.37-0.11-0.54-0.18
			c0.58,1.03,1.16,2.05,1.75,3.08c1.58-6.71,4.63-13.08,9.02-18.41c2.12-2.57,4.59-5.32,7.39-7.16c0.48-0.32,1.05-0.57,1.39-0.51
			c0.08,0.01,0.3,0.13,0.56,0.43c0.52,0.61,0.82,1.7,0.74,2.49c-0.06,0.56-0.3,1.06-0.73,1.64c-0.41,0.54-0.95,1.01-1.5,1.4
			c-1.46,1.03-3.14,1.71-4.8,2.35c1.03,1.03,2.05,2.05,3.08,3.08c3.25-8.81,12.65-16.24,22.21-12.12c4.02,1.73,6.92,5.36,6.84,9.59
			c-0.06,3.55-2.14,7.53-5.42,8.88c-0.49,0.2-1.06,0.39-1.59,0.45c-0.07,0.01-0.53,0.08-0.5,0.02c-0.09,0.17,1.34-1.25,0.2,0.22
			c0.06,0.07,0.12,0.14,0.19,0.2c-0.01-0.15-0.02-0.3-0.01-0.46c0.06-0.33,0.02-0.72,0.05-1.06c0.05-0.6,0.15-1.17,0.28-1.76
			c0.53-2.3,1.56-4.45,3-6.32c2.7-3.51,6.95-6.21,11.43-6.56c0.58-0.05,1.18-0.08,1.76-0.04c0.16,0.01,0.62,0,0.76,0.1
			c0.16,0.11-0.12-0.28-0.11-0.14c0.07,0.83-0.55,2.04-0.9,2.79c-1.07,2.31-2.54,4.36-4.38,6.11c-1.71,1.62-3.73,2.96-5.92,3.84
			c-0.94,0.38-2,0.79-3.02,0.78c-0.79-0.01-0.92-0.11-0.83-1.03c0.3-2.84,1.98-5.81,3.64-8.07c1.69-2.29,3.93-4.3,6.43-5.66
			c0.54-0.29,2.32-0.98,2.5-0.52c-0.19-0.47-0.27,0.59-0.26,0.56c-0.1,0.7-0.29,1.41-0.49,2.09c-0.86,2.96-2.48,5.6-4.65,7.78
			c1.39,0.81,2.79,1.62,4.18,2.43c1.28-4.42,4.27-8.07,8.31-10.26c-1.22-0.5-2.45-1-3.67-1.49c0.32,1.91-0.54,3.96-1.83,5.35
			c-0.74,0.8-1.61,1.48-2.62,1.92c-0.97,0.41-1.82,0.37-2.83,0.46c-0.6,0.05-0.3-0.41-0.09,0.21c0.23,0.13,0.33,0.32,0.29,0.57
			c0.03-0.12,0.07-0.24,0.1-0.37c0.28-0.58,0.51-1.2,0.78-1.78c0.67-1.46,1.38-2.9,2.13-4.32c1.53-2.91,3.22-5.74,5.04-8.48
			c1.55-2.33-2.11-5.24-3.93-3.03c-2.28,2.78-4.91,5.23-7.93,7.19c-1.34,0.87-3.18,2.29-4.82,2.44c-0.85,0.08-1.19-0.3-1.55-1.08
			c-0.39-0.84-0.49-2.1-0.37-2.95c0.24-1.62,1.12-3.11,1.83-4.55c1.49-3.03,3.85-8.23,0.48-10.9c-1.86-1.47-4.58-0.96-6.78-0.9
			c-2.5,0.07-4.99,0.14-7.49,0.21c0.42,1.55,0.84,3.11,1.26,4.66c3.86-2.55,7.72-5.11,11.58-7.66c2.66-1.76,0.26-5.99-2.52-4.32
			c-4.52,2.72-8.36,6.25-11.56,10.44c-1.12,1.47,0.39,3.91,2.16,3.76c3.6-0.31,6.61,2.48,7.62,5.8c1.36,4.49-0.51,9.3-2.65,13.22
			c-1.02,1.86,0.67,4.32,2.82,3.67c3.68-1.1,7.43-1.37,11.24-0.87c-0.59-1.42-1.18-2.85-1.77-4.27c-4.48,3.71-8.54,7.88-12.11,12.46
			c-1.74,2.24-3.66,4.58-4.39,7.39c-0.69,2.64-0.19,5.45,1.3,7.72c2.97,4.53,8.35,6.93,13.4,8.28c5.77,1.55,11.88,1.68,17.71,0.4
			c6.1-1.33,12.51-4.71,18.85-3c0.22-1.64,0.44-3.27,0.66-4.91c-2.2-0.11-4.4-0.21-6.6-0.32c0,1.67,0,3.33,0,5
			c4-0.08,7.99-0.16,11.99-0.24c-0.22-1.64-0.44-3.27-0.66-4.91c-3.73,0.79-7.62,0.96-11.4,0.41c0,1.61,0,3.21,0,4.82
			c3.45-1.14,7.1-1.53,10.7-0.95c-0.2-1.52-0.4-3.05-0.6-4.57c-6.55,2.94-14.07,3.24-20.9,1.11c0.37,1.39,0.74,2.79,1.1,4.18
			c4.93-4.06,11.81-5.33,17.91-3.58c-0.2-1.52-0.4-3.05-0.6-4.57c-7.09,3.87-15.03,5.82-23.1,5.73c0.42,1.55,0.84,3.11,1.26,4.66
			c3.7-1.76,7.73-2.76,11.82-2.97c3.2-0.17,3.24-4.96,0-5c-7.15-0.09-14.28,0.58-21.3,1.96c-2.82,0.55-2.09,4.88,0.66,4.91
			c5.24,0.06,10.48,0.12,15.72,0.19c0-1.67,0-3.33,0-5c-5.63,0.02-11.25,0.05-16.88,0.07c-3.24,0.01-3.19,4.79,0,5
			c8.16,0.53,16.32,1.07,24.48,1.6c2.77,0.18,3.46-4.44,0.66-4.91c-6.44-1.09-13.02-0.61-19.18,1.65c-1.05,0.38-1.84,1.25-1.84,2.41
			c0,1.02,0.77,2.23,1.84,2.41c15.81,2.68,31.99,0.68,46.69-5.73c-1.22-0.94-2.45-1.88-3.67-2.82c0.21-0.51,0.07-0.08-0.05-0.24
			c0.1,0.13,0.06-0.18-0.15-0.02c0.08-0.06,0.25,0.04,0.31,0.09c0,1.18,0,2.36,0,3.54c1.18-1.02,2.55-1.82,4.02-2.36
			c2.53-0.92,2.31-4.96-0.66-4.91c-1.42,0.02-2.85,0.04-4.27,0.07c0.8,1.05,1.61,2.11,2.41,3.16c0.02-0.06,0.03-0.13,0.05-0.19
			c-0.21,0.37-0.43,0.74-0.64,1.1c0.04-0.04,0.08-0.08,0.11-0.13c-0.37,0.21-0.74,0.43-1.1,0.64c-0.5,0.04-0.95-0.05-1.35-0.29
			c-0.21-0.37-0.43-0.74-0.64-1.1c-0.93-2.23,1.25-1.45,0.08-1.38c-0.43,0.03-0.94,0.21-1.37,0.28c-0.78,0.13-1.56,0.2-2.35,0.23
			c-1.73,0.07-3.44-0.07-5.13-0.44c0,1.61,0,3.21,0,4.82c2.46-0.67,4.89-0.57,7.31,0.22c-0.2-1.52-0.4-3.05-0.6-4.57
			c-3.8,2.06-8.19,2.47-12.33,1.26c0,1.61,0,3.21,0,4.82c3.33-0.96,6.76-1.07,10.14-0.28c0-1.61,0-3.21,0-4.82
			c-5.55,1.77-11.28,2.49-17.1,2.15c0.59,1.42,1.18,2.85,1.77,4.27c4.15-3.36,10.36-3.57,14.87-0.87c-0.17-1.31-0.34-2.62-0.51-3.93
			c-1.89,2.2-4.35,3.6-7.2,4.17c-2.45,0.5-5.58,0.33-7.76-1.03c-0.07-0.05-0.15-0.09-0.24-0.13c-0.26-0.3-0.32-0.34-0.19-0.13
			c0.08,0.12,0.11,0.25,0.07,0.39c0.05-0.04,0.1-0.08,0.15-0.12c0.13-0.04,0.61-0.5,0.71-0.57c0.34-0.23,0.68-0.45,1.03-0.66
			c1.46-0.87,3-1.52,4.64-1.97c3.26-0.9,6.67-0.93,9.95-0.09c-0.2-1.52-0.4-3.05-0.6-4.57c-7.26,4.72-16.28,6.03-24.57,3.51
			c0.2,1.52,0.4,3.05,0.6,4.57c5.11-2.24,10.95-2.75,16.39-1.56c-0.2-1.52-0.4-3.05-0.6-4.57c-7.64,4.9-17.16,5.98-25.72,2.96
			c0.2,1.52,0.4,3.05,0.6,4.57c7.59-3.59,16.41-3.83,24.27-0.99c0-1.61,0-3.21,0-4.82c-7.96,3.15-16.68,3.28-24.72,0.32
			c0.2,1.52,0.4,3.05,0.6,4.57c7.14-4.08,15.7-5.08,23.6-2.8c-0.2-1.52-0.4-3.05-0.6-4.57c-7.23,3.53-15.69,3.6-23.09,0.57
			c0.2,1.52,0.4,3.05,0.6,4.57c5.8-3.16,12.67-3.5,18.82-1.16c0-1.61,0-3.21,0-4.82c-9.77,3.21-20.23,4.04-30.37,2.22
			c0,1.61,0,3.21,0,4.82c4.81-1.03,9.77-0.97,14.56,0.13c0-1.61,0-3.21,0-4.82c-8.62,3.16-17.97,4.23-27.07,2.82
			c0.2,1.52,0.4,3.05,0.6,4.57c7.21-3.83,16.17-3.31,22.99,1.11c0.42-1.55,0.84-3.11,1.26-4.66c-8.55-0.32-17.1-0.64-25.65-0.97
			c-1.23-0.05-2.31,0.99-2.46,2.17c-0.16,1.33,0.6,2.26,1.79,2.74c19.7,7.99,42.25,8.66,62.49,2.25c5.76-1.82,11.34-4.22,16.62-7.14
			c1.63-0.9,1.62-3.41,0-4.32c-20.08-11.22-44.69-5.55-65.83-0.95c-6.98,1.52-13.93,3.19-20.84,5
			C495.18,95.64,496.49,100.46,499.62,99.65L499.62,99.65z"/>
	</g>
</g>
<g>
	<g>
		<path class="st1" d="M350.47,402.16c17.1,4.6,35.43,4.18,52.28-1.27c2.64-0.85,2.23-4.89-0.66-4.91
			c-11.54-0.09-23.07-0.18-34.61-0.27c0,1.67,0,3.33,0,5c13.85-0.45,28.15-1.12,41.01-6.79c3.66-1.61,7.02-3.68,10.18-6.12
			c0.97-0.75,0.89-2.41,0.2-3.28c-0.79-0.99-2.1-1.25-3.23-0.64c-12.28,6.58-25.91,10.52-39.81,11.46
			c-2.75,0.19-3.47,4.09-0.66,4.91c6.55,1.92,13.31,0.28,19.58-1.91c6.66-2.32,13.25-4.83,19.87-7.26c2.97-1.09,1.82-5.7-1.33-4.82
			c-12.17,3.38-25.04,3.83-37.4,1.22c-0.22,1.64-0.44,3.27-0.66,4.91c15.51,1.1,31.96,1.93,46.14-5.58
			c-0.84-1.44-1.68-2.88-2.52-4.32c-11.77,6.93-24.54,11.95-37.88,14.91c0.64,1.52,1.28,3.05,1.93,4.57
			c5.99-2.86,12.95-2.7,19.43-3.2c6.88-0.53,13.76-1.72,19.1-6.42c1.95-1.72-0.14-4.75-2.43-4.18
			c-11.45,2.83-22.49,7.28-32.72,13.16c-2.11,1.21-1.24,4.74,1.26,4.66c14.55-0.46,28.67-6.55,38.95-16.87c1.69-1.7,0-5-2.43-4.18
			c-15.94,5.4-33.22,11.23-50.17,7.22c-0.22,1.64-0.44,3.27-0.66,4.91c8.08-0.82,16.07-2.32,23.87-4.57c2.38-0.68,2.38-4.13,0-4.82
			c-8.01-2.31-16.62-1.42-24.03,2.34c-2.23,1.13-1.15,4.71,1.26,4.66c7.07-0.16,14.02-2.29,19.92-6.2c1.74-1.16,1.57-3.99-0.6-4.57
			c-5.33-1.43-11.4,0.4-14.83,4.79c-1.51,1.93-0.17,4.73,2.43,4.18c6.51-1.38,12.53-5.13,16.64-10.36c1.94-2.47,4.73-6.08,3.88-9.43
			c-1.03-4.08-6.3-3.91-9.6-3.48c-4.42,0.57-8.24,3.82-7.46,8.59c0.29,1.74,2.36,2.09,3.67,1.49c9.26-4.19,16.97-11.71,21.42-20.84
			c0.87-1.78-0.6-4.47-2.82-3.67c-8.32,2.99-14.84,9.46-17.91,17.74c-0.73,1.97,1.39,3.36,3.08,3.08
			c12.13-2.01,22.46-11.97,25.03-23.98c0.45-2.1-1.7-3.94-3.67-2.82c-8.11,4.61-14.82,11.56-19.1,19.85c-1.03,2,0.66,4.12,2.82,3.67
			c11.03-2.26,19.45-12.26,20.27-23.39c0.11-1.48-1.71-3.02-3.16-2.41c-9.5,3.96-16.77,12.58-18.49,22.82
			c-0.31,1.84,1.09,3.6,3.08,3.08c11.66-3.09,21.14-13,23.57-24.84c0.47-2.27-1.67-3.7-3.67-2.82c-8.43,3.7-14.89,11.36-17.32,20.22
			c-0.61,2.22,1.77,3.75,3.67,2.82c6.44-3.14,11.32-8.84,13.67-15.58c0.71-2.03-1.89-3.99-3.67-2.82
			c-4.28,2.81-7.78,6.64-10.07,11.22c-1.06,2.13,1.17,4.81,3.42,3.42c3.6-2.22,6.55-5.37,8.43-9.16c1.29-2.62-1.73-4.82-3.93-3.03
			c-4.11,3.35-7.45,7.62-9.72,12.4c-1.06,2.23,1.11,4.64,3.42,3.42c6.24-3.3,10.93-8.81,13.46-15.37c0.84-2.18-1.91-3.74-3.67-2.82
			c-6.5,3.4-11.36,9.56-13.22,16.65c-0.47,1.81,1.22,3.63,3.08,3.08c8.28-2.46,14.91-8.99,17.55-17.21
			c0.65-2.04-1.86-3.99-3.67-2.82c-3.38,2.18-6.22,5.18-8.09,8.76c-0.95,1.8-1.7,3.74-2.13,5.73c-0.47,2.13-0.86,4.68,0.84,6.4
			c3.29,3.33,8.59-0.7,11.3-2.9c2.94-2.38,5.39-5.47,7.12-8.84c2.07-4.04,3.19-8.52,3.14-13.07c-0.02-1.89-2.11-3.12-3.76-2.16
			c-8.57,4.97-14.93,13.34-17.39,22.94c-0.43,1.66,1.22,3.84,3.08,3.08c8.98-3.7,15.2-11.86,16.39-21.49
			c0.24-1.96-2.28-3.02-3.76-2.16c-9.64,5.58-16.91,14.75-20.22,25.38c-0.68,2.18,1.82,3.79,3.67,2.82
			c8.19-4.28,14.47-11.47,17.89-20.02c0.79-1.98-1.96-4.05-3.67-2.82c-7.22,5.16-12.62,12.34-15.52,20.73
			c-0.51,1.48,0.85,3.26,2.41,3.16c8.96-0.55,14.81-7.92,18.85-15.2c1.03-1.85,2.42-3.94,2.77-6.05c0.48-2.88-1.74-5.09-4.6-4.79
			c-4.28,0.44-8.62,3.38-11.57,6.34c-3.5,3.52-5.98,8.13-6.75,13.05c-0.27,1.76,1.08,3.7,3.08,3.08
			c9.54-2.98,17.16-10.73,19.94-20.34c0.73-2.5-2.39-4.04-4.18-2.43c-5.96,5.34-10.93,11.79-14.56,18.92
			c-1.36,2.66,1.73,4.73,3.93,3.03c5.23-4.05,9.68-9,13.23-14.58c1.56-2.45-1.91-4.95-3.93-3.03c-3.78,3.58-6.87,7.88-9.02,12.62
			c-0.95,2.09,0.6,4.02,2.82,3.67c8.42-1.32,14.87-8.68,15.79-17.01c0.22-1.97-2.26-3-3.76-2.16c-8.83,4.93-15.58,12.89-19.21,22.3
			c-0.82,2.13,1.92,3.82,3.67,2.82c9.5-5.38,17.25-13.77,21.75-23.73c0.46-1.03,0.45-2.19-0.39-3.03c-0.75-0.75-2.12-1.01-3.03-0.39
			c-8.66,5.84-15.18,14.33-18.59,24.21c-0.6,1.74,1.32,3.7,3.08,3.08c9.24-3.3,17.01-10.34,20.84-19.42
			c0.44-1.04,0.47-2.17-0.39-3.03c-0.8-0.8-2.05-0.92-3.03-0.39c-9.41,5.11-17.46,12.64-23.21,21.68c-2.38,3.75-4.3,9.17-8.95,10.61
			c-2.62,0.81-5.42,0.63-8.12,0.56c-3.14-0.08-6.28-0.18-9.41-0.3c-7.26-0.28-14.52-0.67-21.78-1.15c0,1.67,0,3.33,0,5
			c10.17,0.09,20.29-2.89,28.76-8.52c1.69-1.12,1.62-4.06-0.6-4.57c-5.85-1.35-11.92-1.35-17.77,0.02
			c-2.97,0.69-5.86,1.77-8.57,3.14c-2.45,1.24-5.35,2.88-5.33,6.02c0.02,2.72,2.43,4.47,4.83,5.11c2.5,0.66,5.21,0.24,7.71-0.2
			c5.07-0.91,9.99-3,14.21-5.95c4.83-3.38,8.88-7.81,11.6-13.05c0.93-1.79-0.64-4.45-2.82-3.67c-10.76,3.82-19.24,12.95-22.04,24.05
			c-0.5,2,1.22,3.36,3.08,3.08c9.12-1.42,17.35-7.39,21.63-15.55c0.97-1.84-0.65-4.35-2.82-3.67c-5.59,1.75-10.37,5.74-12.89,11.05
			c-0.87,1.83,0.59,4.4,2.82,3.67c11.12-3.63,20.03-12.43,23.83-23.49c0.55-1.61-0.89-3.09-2.41-3.16
			c-7.4-0.34-14.23,4.5-16.74,11.38c-0.69,1.9,1.36,3.46,3.08,3.08c9.31-2.1,16.99-9.34,19.81-18.42c0.47-1.52-0.82-3.22-2.41-3.16
			c-4.14,0.15-8.15,2.03-10.83,5.21c-2.41,2.87-5.48,9.41,0.06,10.84c2.05,0.53,4.21-0.31,6.06-1.14c1.74-0.78,3.33-1.85,4.78-3.1
			c3.08-2.63,5.31-6.28,6.3-10.2c0.44-1.75-1.21-3.71-3.08-3.08c-6.58,2.23-12.15,6.42-16.16,12.08c-0.59,0.83-0.4,2.36,0.39,3.03
			c1.16,0.98,2.57,1.23,3.92,0.41c1.19-0.72,1.95-2.33,1.41-3.67c-0.5-1.25-1.67-2.13-3.08-1.75c-1.19,0.33-2.25,1.82-1.75,3.08
			c-0.01-0.08-0.01-0.17-0.02-0.25c0.11-0.42,0.23-0.84,0.34-1.26c0.59-0.2,1.18-0.39,1.77-0.59c0.37,0.21,0.74,0.43,1.1,0.64
			c-0.06-0.05-0.11-0.1-0.17-0.14c0.13,1.01,0.26,2.02,0.39,3.03c3.22-4.54,7.91-8,13.17-9.78c-1.03-1.03-2.05-2.05-3.08-3.08
			c-1.26,4.99-5.18,9.42-10.23,10.8c-0.31,0.09-0.86,0.08-0.9,0.11c-0.29-0.09-0.19-0.02,0.29,0.19c0.17,0.81,0.29,0.99,0.37,0.53
			c0.16-0.23,0.18-0.62,0.29-0.89c0.47-1.16,1.2-2.2,2.07-3.08c1.75-1.76,4.08-2.86,6.57-2.95c-0.8-1.05-1.61-2.11-2.41-3.16
			c-2.32,7.48-8.71,13.21-16.32,14.93c1.03,1.03,2.05,2.05,3.08,3.08c1.77-4.85,6.85-7.94,11.92-7.71c-0.8-1.05-1.61-2.11-2.41-3.16
			c-3.2,9.35-10.95,16.94-20.33,20c0.94,1.22,1.88,2.45,2.82,3.67c1.98-4.16,5.48-7.37,9.91-8.75c-0.94-1.22-1.88-2.45-2.82-3.67
			c-3.75,7.14-10.69,12.01-18.65,13.25c1.03,1.03,2.05,2.05,3.08,3.08c2.36-9.35,9.42-17.32,18.54-20.56
			c-0.94-1.22-1.88-2.45-2.82-3.67c-3.83,7.38-10.57,13.08-18.5,15.62c-3.3,1.06-7.54,2.2-10.58,0.75c0.21,0.1-0.4-0.16,0.03,0.09
			c-0.03-0.02,0.04,0.28-0.01,0.27c-0.02,0,0.04-0.11,0.05-0.11c0.06,0.01,0.88-0.64,0.96-0.69c0.61-0.36,1.24-0.7,1.87-1.02
			c2.09-1.05,4.29-1.85,6.55-2.43c5.21-1.34,10.69-1.43,15.94-0.22c-0.2-1.52-0.4-3.05-0.6-4.57c-7.78,5.18-16.89,7.92-26.24,7.84
			c-3.25-0.03-3.18,4.79,0,5c6.59,0.44,13.19,0.8,19.79,1.07c3.22,0.13,6.44,0.24,9.66,0.33c2.98,0.08,5.97,0.24,8.93-0.2
			c2.86-0.42,5.46-1.61,7.57-3.61c1.91-1.81,3.3-4.13,4.6-6.4c2.6-4.5,5.53-8.68,9.14-12.43c4.19-4.34,8.99-7.97,14.29-10.85
			c-1.14-1.14-2.28-2.28-3.42-3.42c-3.32,7.87-9.77,14.24-17.85,17.12c1.03,1.03,2.05,2.05,3.08,3.08
			c2.96-8.59,8.76-16.14,16.29-21.22c-1.14-1.14-2.28-2.28-3.42-3.42c-4.18,9.24-11.13,16.94-19.96,21.94
			c1.22,0.94,2.45,1.88,3.67,2.82c3.16-8.18,9.27-15.05,16.91-19.31c-1.25-0.72-2.51-1.44-3.76-2.16
			c-0.7,6.25-6.06,11.23-12.12,12.19c0.94,1.22,1.88,2.45,2.82,3.67c1.99-4.39,4.74-8.29,8.23-11.61c-1.31-1.01-2.62-2.02-3.93-3.03
			c-3.33,5.22-7.55,9.77-12.45,13.57c1.31,1.01,2.62,2.02,3.93,3.03c3.46-6.8,8.1-12.82,13.78-17.91c-1.39-0.81-2.79-1.62-4.18-2.43
			c-2.29,7.91-8.59,14.38-16.45,16.84c1.03,1.03,2.05,2.05,3.08,3.08c1.01-6.52,5.3-12.3,11.4-14.93c0.62-0.27,1.27-0.49,1.93-0.68
			c-0.04,0.01,0.86-0.23,0.85-0.16c0.04-0.18-1.43-0.82-0.95-1.15c-0.09,0.06-0.16,0.57-0.21,0.68c-0.58,1.42-1.43,2.8-2.18,4.14
			c-1.62,2.87-3.42,5.67-5.75,8.02c-2.33,2.36-5.23,4.18-8.61,4.39c0.8,1.05,1.61,2.11,2.41,3.16c2.45-7.08,7.12-13.38,13.22-17.74
			c-1.22-0.94-2.45-1.88-3.67-2.82c-2.93,7.34-8.61,13.39-15.59,17.04c1.22,0.94,2.45,1.88,3.67,2.82
			c2.93-9.4,9.4-17.46,17.92-22.39c-1.25-0.72-2.51-1.44-3.76-2.16c-0.89,7.18-6.03,13.91-12.72,16.67
			c1.03,1.03,2.05,2.05,3.08,3.08c2.15-8.38,7.61-15.61,15.1-19.95c-1.25-0.72-2.51-1.44-3.76-2.16c0.09,7.36-3.56,14.73-9.62,18.99
			c-0.76,0.53-1.55,1.03-2.37,1.47c-0.24,0.13-0.82,0.3-1.02,0.48c-0.64,0.59-0.21-0.41-0.02,0.33c0.28,1.11,0.21-0.2,0.23-0.42
			c0.05-0.5,0.18-1,0.3-1.48c0.22-0.92,0.5-1.83,0.85-2.7c1.39-3.44,3.88-6.42,6.99-8.43c-1.22-0.94-2.45-1.88-3.67-2.82
			c-2.1,6.54-7.48,11.77-14.06,13.72c1.03,1.03,2.05,2.05,3.08,3.08c1.55-5.91,5.51-10.84,10.92-13.67
			c-1.22-0.94-2.45-1.88-3.67-2.82c-2.06,5.34-6.13,9.71-11.16,12.38c1.14,1.14,2.28,2.28,3.42,3.42c2.11-4.45,5.11-8.27,8.94-11.39
			c-1.31-1.01-2.62-2.02-3.93-3.03c-1.51,3.06-3.72,5.58-6.63,7.37c1.14,1.14,2.28,2.28,3.42,3.42c1.91-3.82,4.7-7.08,8.28-9.43
			c-1.22-0.94-2.45-1.88-3.67-2.82c-1.94,5.55-6.11,10.03-11.37,12.59c1.22,0.94,2.45,1.88,3.67,2.82
			c2.12-7.73,7.7-14.02,15.02-17.23c-1.22-0.94-2.45-1.88-3.67-2.82c-2.09,10.2-9.99,18.68-20.08,21.35
			c1.03,1.03,2.05,2.05,3.08,3.08c1.41-8.39,7.06-16.03,15-19.33c-1.05-0.8-2.11-1.61-3.16-2.41c-0.66,9.01-7.85,16.77-16.6,18.57
			c0.94,1.22,1.88,2.45,2.82,3.67c3.91-7.58,9.89-13.85,17.3-18.06c-1.22-0.94-2.45-1.88-3.67-2.82
			c-2.24,10.48-10.98,18.74-21.54,20.49c1.03,1.03,2.05,2.05,3.08,3.08c2.42-6.53,7.86-11.9,14.42-14.25
			c-0.94-1.22-1.88-2.45-2.82-3.67c-4.13,8.47-11.05,15.16-19.63,19.04c1.22,0.5,2.45,1,3.67,1.49c-0.13-0.78,0.93-1.61,1.54-1.9
			c1.46-0.69,3.34-0.55,4.91-0.49c0.23,0.01,0.87-0.02,1.04,0.04c-0.61-0.21-0.1-0.34-0.08-0.23c0.03,0.19-0.14,0.6-0.21,0.78
			c-0.54,1.4-1.52,2.78-2.43,3.97c-3.52,4.64-8.71,7.82-14.39,9.02c0.81,1.39,1.62,2.79,2.43,4.18c2.37-3.03,6.2-4.51,9.97-3.5
			c-0.2-1.52-0.4-3.05-0.6-4.57c-5.19,3.44-11.16,5.38-17.4,5.52c0.42,1.55,0.84,3.11,1.26,4.66c6.23-3.16,13.48-3.78,20.18-1.84
			c0-1.61,0-3.21,0-4.82c-7.37,2.12-14.91,3.61-22.54,4.39c-1.24,0.13-2.3,0.85-2.46,2.17c-0.14,1.19,0.56,2.45,1.79,2.74
			c17.91,4.23,35.95-1.51,52.83-7.22c-0.81-1.39-1.62-2.79-2.43-4.18c-9.35,9.38-22.17,14.98-35.41,15.4
			c0.42,1.55,0.84,3.11,1.26,4.66c9.88-5.68,20.47-9.92,31.52-12.65c-0.81-1.39-1.62-2.79-2.43-4.18
			c-4.73,4.16-11.38,4.69-17.38,5.09c-6.86,0.45-13.82,0.74-20.13,3.75c-2.66,1.27-0.72,5.16,1.93,4.57
			c13.73-3.05,26.96-8.28,39.08-15.41c2.78-1.64,0.32-5.82-2.52-4.32c-13.32,7.05-29.09,5.92-43.62,4.89
			c-2.8-0.2-3.42,4.33-0.66,4.91c13.24,2.79,27.02,2.4,40.06-1.22c-0.44-1.61-0.89-3.21-1.33-4.82c-6.33,2.32-12.65,4.68-19,6.95
			c-5.66,2.02-11.81,3.96-17.79,2.21c-0.22,1.64-0.44,3.27-0.66,4.91c14.81-1.01,29.25-5.13,42.33-12.14
			c-1.01-1.31-2.02-2.62-3.03-3.93c-13.35,10.32-31.52,10.93-47.66,11.45c-3.21,0.1-3.23,4.98,0,5c11.54,0.09,23.07,0.18,34.61,0.27
			c-0.22-1.64-0.44-3.27-0.66-4.91c-16.04,5.18-33.34,5.65-49.62,1.27C348.69,396.5,347.36,401.32,350.47,402.16L350.47,402.16z"/>
	</g>
</g>
<g>
	<g>
		<path class="st1" d="M497.32,100.9c9.05,1.6,18.23,1.53,27.25-0.25c-0.64-1.52-1.28-3.05-1.93-4.57
			c-6.97,3.08-14.92,3.82-22.35,2.21c-0.22,1.64-0.44,3.27-0.66,4.91c6.61,0.27,13.22,0.62,19.83,0.81
			c5.35,0.15,11.04-0.35,15.11-4.22c2.35-2.23-1.15-5.68-3.54-3.54c-8.26,7.43-20.42,4.99-29.98,2.03
			c-0.44,1.61-0.89,3.21-1.33,4.82c14.15,3.43,29.27,2.48,42.82-2.88c-0.64-1.52-1.28-3.05-1.93-4.57
			c-9.59,6.73-21.69,9.68-33.3,7.75c-0.22,1.64-0.44,3.27-0.66,4.91c16.05-0.59,33.04-1.43,47.09-10.1
			c-1.01-1.31-2.02-2.62-3.03-3.93c-9.22,10.95-24.59,11.22-37.75,11.1c0,1.67,0,3.33,0,5c15.59-1.6,31.95-3.58,44.61-13.67
			c-1.18-1.18-2.36-2.36-3.54-3.54c-10.06,10.54-25.56,12.6-39.32,14.23c-1.24,0.15-2.3,0.84-2.46,2.17
			c-0.14,1.16,0.55,2.49,1.79,2.74c8.64,1.77,17.29-0.17,25.59-2.64c8.3-2.47,16.5-5.3,24.56-8.46c4.64-1.82,9.24-3.75,13.79-5.78
			c-1.01-1.31-2.02-2.62-3.03-3.93c-6.94,7.36-17.58,8.86-27.18,9.56c-6.37,0.47-12.75,0.76-19.12,1.13c-3.3,0.19-6.6,0.38-9.9,0.57
			c-0.6,0.03-1.75,0.33-2.29,0.11c-0.33-0.14,0.1,0.08,0.1,0.08c0.04,0.06-0.01-1.58-0.07-0.38c0.05-0.94,0-1.69,0.37-2.61
			c2.43-5.95,10.24-5.98,15.58-6.03c2.75-0.02,3.48-4.27,0.66-4.91c-3.21-0.73-6.51-0.63-9.64,0.42c-3.03,1.02-1.75,5.83,1.33,4.82
			c0.7-0.23,1.4-0.46,2.1-0.69c3.05-1,1.82-5.59-1.33-4.82c-4.12,1.01-7.84,3.04-10.99,5.86c-1.3,1.17-0.75,3.9,1.1,4.18
			c2.22,0.34,4.36,0.27,6.51-0.43c-0.64-1.52-1.28-3.05-1.93-4.57c-5.24,3.91-10.47,7.82-15.71,11.73c1.25,0.72,2.51,1.44,3.76,2.16
			c-0.03-1.14-0.05-2.28-0.08-3.42c-0.07-3.21-5.07-3.22-5,0c0.03,1.14,0.05,2.28,0.08,3.42c0.04,1.72,2.17,3.35,3.76,2.16
			c5.24-3.91,10.47-7.82,15.71-11.73c1-0.74,1.56-1.9,1.02-3.12c-0.48-1.09-1.74-1.84-2.95-1.45c-1.25,0.41-2.54,0.63-3.85,0.43
			c0.37,1.39,0.74,2.79,1.1,4.18c2.52-2.26,5.51-3.77,8.79-4.58c-0.44-1.61-0.89-3.21-1.33-4.82c-0.7,0.23-1.4,0.46-2.1,0.69
			c0.44,1.61,0.89,3.21,1.33,4.82c2.29-0.77,4.62-0.95,6.98-0.42c0.22-1.64,0.44-3.27,0.66-4.91c-6.59,0.06-13.95,0.54-18.38,6.13
			c-1.93,2.44-3.15,5.71-2.39,8.84c0.39,1.61,1.39,3.03,2.98,3.62c1.73,0.64,3.78,0.26,5.59,0.16c7.59-0.44,15.17-0.87,22.76-1.31
			c6.14-0.35,12.33-0.76,18.33-2.16c6.41-1.5,12.59-4.31,17.17-9.16c2.05-2.17-0.51-5.05-3.03-3.93c-7.5,3.34-15.13,6.38-22.88,9.1
			c-7.8,2.74-15.78,5.54-23.92,7.08c-4.37,0.83-8.92,1.1-13.3,0.2c-0.22,1.64-0.44,3.27-0.66,4.91c15.1-1.8,31.81-4.12,42.85-15.7
			c0.93-0.98,0.97-2.56,0-3.54c-1.04-1.04-2.48-0.84-3.54,0c-11.47,9.14-27,10.77-41.08,12.21c-1.34,0.14-2.5,1.05-2.5,2.5
			c0,1.37,1.14,2.49,2.5,2.5c14.45,0.14,31.21-0.58,41.29-12.56c0.8-0.95,1.01-2.26,0.2-3.28c-0.75-0.95-2.14-1.31-3.22-0.64
			c-13.29,8.2-29.4,8.86-44.57,9.42c-1.24,0.05-2.31,0.92-2.46,2.17c-0.13,1.12,0.55,2.54,1.79,2.74c12.9,2.14,26.4-0.72,37.15-8.26
			c1.02-0.71,1.55-1.92,1.02-3.12c-0.46-1.04-1.77-1.91-2.95-1.45c-12.75,5.04-26.82,6.11-40.16,2.88
			c-3.13-0.76-4.41,3.87-1.33,4.82c11.49,3.55,25.12,5.43,34.85-3.32c-1.18-1.18-2.36-2.36-3.54-3.54
			c-3.3,3.13-8.47,2.88-12.69,2.71c-6.24-0.24-12.47-0.51-18.71-0.77c-2.79-0.11-3.44,4.31-0.66,4.91
			c8.85,1.92,17.93,0.94,26.2-2.72c1.12-0.5,1.47-2.1,1.02-3.12c-0.52-1.19-1.69-1.7-2.95-1.45c-8.09,1.59-16.47,1.69-24.59,0.25
			c-1.33-0.24-2.69,0.36-3.08,1.75C495.24,99.04,495.98,100.67,497.32,100.9L497.32,100.9z"/>
	</g>
</g>
</svg>
